<svg width="30" height="30" viewBox="0 0 30 30" fill="none" xmlns="http://www.w3.org/2000/svg">
<g clip-path="url(#clip0_268_979)">
<path d="M14.1233 9.50409C14.0713 9.45356 14.008 9.4161 13.9387 9.39477C13.8694 9.37344 13.796 9.36886 13.7246 9.38141C13.6531 9.39306 13.5852 9.42116 13.5265 9.4635C13.4677 9.50584 13.4195 9.56127 13.3858 9.6254C12.7498 10.8329 13.5644 12.5946 14.1461 13.5937H15.882L15.5181 12.8659C15.4904 12.8108 15.4738 12.7508 15.4693 12.6893C15.4649 12.6278 15.4725 12.5661 15.492 12.5075C15.5114 12.449 15.5422 12.3949 15.5826 12.3483C15.6229 12.3017 15.6721 12.2635 15.7272 12.2359C15.7824 12.2084 15.8424 12.1919 15.9039 12.1876C15.9654 12.1833 16.0272 12.1911 16.0857 12.2107C16.1441 12.2302 16.1982 12.2612 16.2447 12.3016C16.2912 12.3421 16.3293 12.3914 16.3567 12.4466L16.8749 13.483L17.3931 12.4466C17.4489 12.3357 17.5464 12.2514 17.6642 12.2123C17.782 12.1732 17.9105 12.1824 18.0216 12.2379C18.1326 12.2935 18.2171 12.3907 18.2565 12.5085C18.2959 12.6262 18.287 12.7547 18.2317 12.8659L17.8678 13.5937H19.6036C20.1853 12.5946 21 10.8329 20.364 9.6254C20.3075 9.51847 20.212 9.43746 20.0973 9.39926C19.9826 9.36105 19.8576 9.36859 19.7483 9.42032C17.8664 10.3134 17.2031 9.86572 17.1985 9.86618C17.1418 9.81204 17.0724 9.773 16.9967 9.75263C16.921 9.73225 16.8413 9.73119 16.7651 9.74955C16.6889 9.7679 16.6185 9.80508 16.5603 9.85768C16.5021 9.91029 16.4581 9.97664 16.4322 10.0507L16.3471 10.2942L16.0386 9.86023C15.9774 9.77435 15.889 9.71161 15.7878 9.68212C15.6865 9.65264 15.5783 9.65813 15.4806 9.69772C15.2582 9.79243 15.0142 9.82445 14.7749 9.79032C14.5356 9.75618 14.3103 9.6572 14.1233 9.50409Z" fill="#F0FF42"/>
<path d="M16.4062 18.7031V17.8594C16.0969 17.9438 15.9375 18.1125 15.9375 18.2813C15.9375 18.45 16.0969 18.6188 16.4062 18.7031Z" fill="#F0FF42"/>
<path d="M15.9184 14.5312H13.5278C12.6458 15.4596 12.0783 16.642 11.9059 17.9109C11.6481 19.4719 11.5122 21.2156 12.4637 22.3172C13.1153 23.0719 14.1794 23.4375 15.7122 23.4375H17.8684C19.4997 23.4609 20.6106 23.0953 21.2856 22.3172C22.2372 21.2156 22.1012 19.4719 21.8434 17.9109C21.671 16.642 21.1036 15.4596 20.2215 14.5312H17.8309L18.2247 15.2438C18.2828 15.3535 18.2957 15.4815 18.2606 15.6007C18.2256 15.7198 18.1454 15.8205 18.0372 15.8813C17.9678 15.9179 17.8906 15.9372 17.8122 15.9375C17.7279 15.9373 17.6453 15.9146 17.5728 15.8717C17.5003 15.8289 17.4405 15.7674 17.3997 15.6937L16.8747 14.7328L16.3497 15.6937C16.3088 15.7674 16.2491 15.8289 16.1766 15.8717C16.1041 15.9146 16.0214 15.9373 15.9372 15.9375C15.8587 15.9372 15.7815 15.9179 15.7122 15.8813C15.6039 15.8205 15.5237 15.7198 15.4887 15.6007C15.4537 15.4815 15.4666 15.3535 15.5247 15.2438L15.9184 14.5312ZM16.4059 16.9078V16.875C16.4059 16.7507 16.4553 16.6315 16.5432 16.5435C16.6311 16.4556 16.7504 16.4062 16.8747 16.4062C16.999 16.4062 17.1182 16.4556 17.2061 16.5435C17.294 16.6315 17.3434 16.7507 17.3434 16.875V16.9031C18.6887 17.0578 18.7497 17.9578 18.7497 18.0703C18.7511 18.1319 18.7403 18.1932 18.718 18.2506C18.6957 18.3081 18.6622 18.3605 18.6195 18.405C18.5768 18.4494 18.5257 18.485 18.4692 18.5096C18.4127 18.5342 18.3519 18.5474 18.2903 18.5484C18.2287 18.5512 18.1673 18.5415 18.1096 18.5199C18.0519 18.4983 17.9991 18.4653 17.9545 18.4229C17.9098 18.3804 17.8742 18.3294 17.8497 18.2728C17.8253 18.2163 17.8125 18.1554 17.8122 18.0937C17.8028 18.0375 17.695 17.9016 17.3434 17.8406V18.7828C17.7052 18.8003 18.048 18.9496 18.3072 19.2027C18.5663 19.4558 18.7237 19.795 18.7497 20.1562C18.7237 20.5175 18.5663 20.8567 18.3072 21.1098C18.048 21.3629 17.7052 21.5122 17.3434 21.5297V21.5625C17.3434 21.6868 17.294 21.806 17.2061 21.894C17.1182 21.9819 16.999 22.0312 16.8747 22.0312C16.7504 22.0312 16.6311 21.9819 16.5432 21.894C16.4553 21.806 16.4059 21.6868 16.4059 21.5625V21.5391C15.0606 21.3797 14.9997 20.4797 14.9997 20.3672C14.9982 20.3056 15.009 20.2443 15.0313 20.1869C15.0537 20.1294 15.0872 20.077 15.1299 20.0325C15.1726 19.9881 15.2236 19.9525 15.2801 19.9279C15.3366 19.9033 15.3974 19.8901 15.459 19.8891C15.5826 19.8893 15.7012 19.9372 15.7903 20.0228C15.8794 20.1084 15.932 20.225 15.9372 20.3484C15.9465 20.4 16.0497 20.5312 16.4059 20.5922V19.6547C16.0441 19.6372 15.7013 19.4879 15.4422 19.2348C15.1831 18.9817 15.0256 18.6425 14.9997 18.2812C15.0256 17.92 15.1831 17.5808 15.4422 17.3277C15.7013 17.0746 16.0441 16.9253 16.4059 16.9078Z" fill="#F0FF42"/>
<path d="M17.8125 20.1563C17.8125 19.9875 17.6531 19.8188 17.3438 19.7344V20.5781C17.6531 20.4938 17.8125 20.325 17.8125 20.1563Z" fill="#F0FF42"/>
<path d="M7.96875 15C7.97102 13.1359 8.71254 11.3488 10.0307 10.0307C11.3488 8.71253 13.1359 7.97102 15 7.96875C15.1242 7.96838 15.2432 7.91887 15.331 7.83105C15.4189 7.74322 15.4684 7.6242 15.4688 7.5V2.34375C15.4684 2.21954 15.4189 2.10053 15.331 2.0127C15.2432 1.92487 15.1242 1.87537 15 1.875C11.8903 1.872 8.88171 2.97904 6.51562 4.99687L8.49375 6.975C8.53722 7.01836 8.5717 7.06987 8.59523 7.12657C8.61876 7.18328 8.63087 7.24407 8.63087 7.30547C8.63087 7.36686 8.61876 7.42765 8.59523 7.48436C8.5717 7.54107 8.53722 7.59258 8.49375 7.63594C8.45096 7.68041 8.39964 7.71578 8.34285 7.73995C8.28607 7.76411 8.22499 7.77657 8.16328 7.77657C8.10157 7.77657 8.04049 7.76411 7.98371 7.73995C7.92692 7.71578 7.8756 7.68041 7.83281 7.63594L4.08281 3.88594C3.99344 3.79958 3.87427 3.75091 3.75 3.75H0.46875C0.34443 3.75 0.225201 3.79938 0.137294 3.88729C0.049386 3.9752 0 4.09443 0 4.21875C0 4.34307 0.049386 4.4623 0.137294 4.5502C0.225201 4.63811 0.34443 4.6875 0.46875 4.6875H3.55781L5.17969 6.31406C3.04818 8.7049 1.87176 11.797 1.875 15C1.87537 15.1242 1.92488 15.2432 2.0127 15.331C2.10053 15.4189 2.21954 15.4684 2.34375 15.4687H7.5C7.62421 15.4684 7.74322 15.4189 7.83105 15.331C7.91887 15.2432 7.96838 15.1242 7.96875 15Z" fill="#F0FF42"/>
<path d="M0.46875 2.8125H3.64883C3.77315 2.8125 3.89238 2.76311 3.98029 2.67521C4.0682 2.5873 4.11758 2.46807 4.11758 2.34375C4.11758 2.21943 4.0682 2.1002 3.98029 2.01229C3.89238 1.92439 3.77315 1.875 3.64883 1.875H0.46875C0.34443 1.875 0.225201 1.92439 0.137294 2.01229C0.049386 2.1002 0 2.21943 0 2.34375C0 2.46807 0.049386 2.5873 0.137294 2.67521C0.225201 2.76311 0.34443 2.8125 0.46875 2.8125Z" fill="#F0FF42"/>
<path d="M0.46875 0.9375H3.64883C3.77315 0.9375 3.89238 0.888114 3.98029 0.800206C4.0682 0.712299 4.11758 0.59307 4.11758 0.46875C4.11758 0.34443 4.0682 0.225201 3.98029 0.137294C3.89238 0.049386 3.77315 0 3.64883 0L0.46875 0C0.34443 0 0.225201 0.049386 0.137294 0.137294C0.049386 0.225201 0 0.34443 0 0.46875C0 0.59307 0.049386 0.712299 0.137294 0.800206C0.225201 0.888114 0.34443 0.9375 0.46875 0.9375Z" fill="#F0FF42"/>
<path d="M7.96875 16.875C7.96879 16.8134 7.95668 16.7525 7.93314 16.6956C7.9096 16.6387 7.87507 16.587 7.83153 16.5435C7.788 16.4999 7.73631 16.4654 7.67942 16.4419C7.62254 16.4183 7.56157 16.4062 7.5 16.4063H4.21875C4.15718 16.4062 4.09621 16.4183 4.03933 16.4419C3.98244 16.4654 3.93075 16.4999 3.88722 16.5435C3.84368 16.587 3.80915 16.6387 3.78561 16.6956C3.76207 16.7525 3.74996 16.8134 3.75 16.875C3.75381 20.2745 5.07406 23.5403 7.43375 25.9874C9.79344 28.4345 13.0092 29.8726 16.4062 30V25.7575C14.1307 25.6367 11.988 24.6487 10.4186 22.9965C8.84921 21.3444 7.9725 19.1537 7.96875 16.875Z" fill="#F0FF42"/>
<path d="M16.875 7.96875C19.1537 7.9725 21.3444 8.84921 22.9965 10.4186C24.6487 11.988 25.6367 14.1307 25.7575 16.4062H30C29.8726 13.0092 28.4345 9.79344 25.9874 7.43375C23.5403 5.07406 20.2745 3.75381 16.875 3.75C16.8134 3.74996 16.7525 3.76207 16.6956 3.78561C16.6387 3.80915 16.587 3.84368 16.5435 3.88722C16.4999 3.93075 16.4654 3.98244 16.4419 4.03933C16.4183 4.09621 16.4062 4.15718 16.4063 4.21875V7.5C16.4062 7.56157 16.4183 7.62254 16.4419 7.67942C16.4654 7.73631 16.4999 7.788 16.5435 7.83153C16.587 7.87507 16.6387 7.9096 16.6956 7.93314C16.7525 7.95668 16.8134 7.96879 16.875 7.96875Z" fill="#F0FF42"/>
<path d="M17.3438 25.7575V30C20.6607 29.8756 23.8081 28.5023 26.1552 26.1552C28.5023 23.8081 29.8756 20.6607 30 17.3438H25.7575C25.6399 19.537 24.7156 21.6094 23.1625 23.1625C21.6094 24.7156 19.537 25.6399 17.3438 25.7575Z" fill="#F0FF42"/>
</g>
<defs>
<clipPath id="clip0_268_979">
<rect width="30" height="30" fill="white"/>
</clipPath>
</defs>
</svg>
