<svg width="30" height="30" viewBox="0 0 30 30" fill="none" xmlns="http://www.w3.org/2000/svg">
<g clip-path="url(#clip0_277_1654)">
<path d="M27.8196 25.1271H6.3554C5.94631 25.1271 5.94901 24.6836 6.18034 24.4838L10.9544 20.3837H26.2453C26.4354 20.3837 26.5931 20.2121 26.5968 20.0223L26.7881 10.1488C26.7915 9.97301 26.6628 9.81654 26.4888 9.79045L23.1115 9.2824C21.7984 11.1553 19.6353 12.2944 17.3259 12.2944C15.7143 12.2944 14.1381 11.7366 12.8876 10.7248C11.8218 9.86224 11.0274 8.70069 10.6082 7.40742L8.35653 7.07L8.36646 7.06737L6.88396 1.31558C6.78019 0.912325 6.41713 0.640991 6.00131 0.640991H2.17969V2.43578H5.295L9.33026 19.328L5.00719 23.0792C3.4295 24.3283 4.34555 26.986 6.3554 26.986H10.0575C9.85499 27.2424 9.73691 27.6459 9.73691 28.0415C9.73691 29.1277 10.6243 30 11.7189 30C12.8136 30 13.7009 29.1318 13.7009 28.0457C13.7009 27.6501 13.5828 27.2424 13.3803 26.986H20.9919C20.7894 27.2424 20.6713 27.646 20.6713 28.0416C20.6713 29.1277 21.5587 30.0001 22.6533 30.0001C23.748 30.0001 24.6353 29.1319 24.6353 28.0457C24.6353 27.6502 24.5172 27.2425 24.3147 26.9861H27.8197V25.1271H27.8196Z" fill="#F0FF42"/>
<path d="M17.3258 0C14.4386 0 12.0898 2.34631 12.0898 5.23034C12.0898 8.11438 14.4386 10.4607 17.3258 10.4607C20.2129 10.4607 22.5617 8.11438 22.5617 5.23034C22.5617 2.34631 20.2128 0 17.3258 0ZM17.0019 7.72555C16.6368 8.11451 15.9846 8.09733 15.6408 7.68812L14.0641 5.81243L15.4585 4.63659L16.3755 5.7275L19.1247 2.79911L20.4526 4.04982L17.0019 7.72555Z" fill="#F0FF42"/>
</g>
<defs>
<clipPath id="clip0_277_1654">
<rect width="30" height="30" fill="white"/>
</clipPath>
</defs>
</svg>
