<svg width="100" height="100" viewBox="0 0 100 100" fill="none" xmlns="http://www.w3.org/2000/svg">
<path d="M64.0059 45.0435H66.6113C72.9375 45.0435 78.0644 50.1724 78.0644 56.4986V62.1568" stroke="#333333" stroke-width="2.92968" stroke-miterlimit="10" stroke-linecap="round" stroke-linejoin="round"/>
<path d="M64.0059 50.436H66.6113C69.959 50.436 72.6719 53.1508 72.6719 56.4985V61.3012" stroke="#333333" stroke-width="2.92968" stroke-miterlimit="10" stroke-linecap="round" stroke-linejoin="round"/>
<path d="M32.3926 53.6019L34.9238 18.1527C34.998 17.1312 35.8477 16.3383 36.873 16.3383H45.627C46.6523 16.3383 47.5039 17.1312 47.5762 18.1527L49.1836 40.6605" stroke="#333333" stroke-width="2.92968" stroke-miterlimit="10" stroke-linecap="round" stroke-linejoin="round"/>
<path d="M8.70508 57.3655L11.5039 18.1526C11.5762 17.1311 12.4258 16.3382 13.4512 16.3382H22.207C23.2305 16.3382 24.082 17.1311 24.1543 18.1526L26.75 54.4983" stroke="#333333" stroke-width="2.92968" stroke-miterlimit="10" stroke-linecap="round" stroke-linejoin="round"/>
<path d="M95.3801 71.7886V95.0089C95.3801 95.5482 94.9428 95.9855 94.4035 95.9855H62.9805" stroke="#333333" stroke-width="2.92968" stroke-miterlimit="10" stroke-linecap="round" stroke-linejoin="round"/>
<path d="M95.3119 89.0723H64.002" stroke="#333333" stroke-width="2.92968" stroke-miterlimit="10" stroke-linecap="round" stroke-linejoin="round"/>
<path d="M91.7461 64.3326L96.6602 65.1139C97.8711 65.3072 98.6953 66.444 98.5039 67.6549L98.1543 69.8463C97.9629 71.0572 96.8242 71.8834 95.6152 71.6901L64 66.6666" stroke="#333333" stroke-width="2.92968" stroke-miterlimit="10" stroke-linecap="round" stroke-linejoin="round"/>
<path d="M85.3418 63.315L64 59.9244" stroke="#333333" stroke-width="2.92968" stroke-miterlimit="10" stroke-linecap="round" stroke-linejoin="round"/>
<path d="M23.5723 89.0726H5.57422" stroke="#333333" stroke-width="2.92968" stroke-miterlimit="10" stroke-linecap="round" stroke-linejoin="round"/>
<path d="M64.0059 89.0726H44.457" stroke="#333333" stroke-width="2.92968" stroke-miterlimit="10" stroke-linecap="round" stroke-linejoin="round"/>
<path d="M44.4531 95.9854H62.982C63.5461 95.9854 64.0033 95.5282 64.0033 94.9641V80.2491" stroke="#333333" stroke-width="2.92968" stroke-miterlimit="10" stroke-linecap="round" stroke-linejoin="round"/>
<path d="M5.57031 64.9379V94.9639C5.57031 95.528 6.02754 95.9852 6.5916 95.9852H23.5693" stroke="#333333" stroke-width="2.92968" stroke-miterlimit="10" stroke-linecap="round" stroke-linejoin="round"/>
<path d="M64.0039 73.7721V34.9887" stroke="#333333" stroke-width="2.92968" stroke-miterlimit="10" stroke-linecap="round" stroke-linejoin="round"/>
<path d="M22.4453 61.9242L39.9748 59.1378C40.7021 59.0222 41.3709 58.6685 41.8759 58.1324L65.9562 32.5611C66.7966 31.6687 66.7544 30.264 65.8621 29.4236L64.2462 27.9019C63.3539 27.0615 61.9492 27.1037 61.1087 27.996L37.8074 52.74L3.33628 58.2193C2.12573 58.4117 1.30014 59.5492 1.49272 60.7597L1.84116 62.9519C2.03354 64.1624 3.17104 64.9878 4.38159 64.7954L16.0648 62.9384" stroke="#333333" stroke-width="2.92968" stroke-miterlimit="10" stroke-linecap="round" stroke-linejoin="round"/>
<path d="M17.9629 9.49578V9.05554C17.9629 6.27156 20.2197 4.01453 23.0039 4.01453H35.8023" stroke="#333333" stroke-width="2.92968" stroke-miterlimit="10" stroke-linecap="round" stroke-linejoin="round"/>
<path d="M52.4395 4.01486H60.6389C63.7205 4.01486 66.2186 6.51291 66.2186 9.59455C66.2186 12.6762 68.7166 15.1742 71.7982 15.1742" stroke="#333333" stroke-width="2.92968" stroke-miterlimit="10" stroke-linecap="round" stroke-linejoin="round"/>
<path d="M67.0117 15.1743H69.3332C72.4148 15.1743 74.9129 17.6724 74.9129 20.754C74.9129 23.8357 77.4109 26.3337 80.4926 26.3337H93.2844" stroke="#333333" stroke-width="2.92968" stroke-miterlimit="10" stroke-linecap="round" stroke-linejoin="round"/>
<path d="M41.1172 9.49587V9.05563C41.1172 6.27165 43.374 4.01462 46.1582 4.01462H52.4402C55.5219 4.01462 58.0199 6.51266 58.0199 9.59431C58.0199 12.6759 60.518 15.174 63.5996 15.174H77.534C80.6156 15.174 83.1137 17.672 83.1137 20.7537C83.1137 23.8353 85.6117 26.3334 88.6934 26.3334" stroke="#333333" stroke-width="2.92968" stroke-miterlimit="10" stroke-linecap="round" stroke-linejoin="round"/>
<path d="M44.4539 95.9855H23.5703V80.3296C23.5703 79.7904 24.0076 79.3531 24.5469 79.3531H43.4775C44.0168 79.3531 44.4541 79.7904 44.4541 80.3296V95.9855H44.4539Z" stroke="#333333" stroke-width="2.92968" stroke-miterlimit="10" stroke-linecap="round" stroke-linejoin="round"/>
<path d="M23.5703 84.8885H44.4539" stroke="#333333" stroke-width="2.92968" stroke-miterlimit="10" stroke-linecap="round" stroke-linejoin="round"/>
<path d="M23.5703 90.4499H44.4539" stroke="#333333" stroke-width="2.92968" stroke-miterlimit="10" stroke-linecap="round" stroke-linejoin="round"/>
<path d="M69.314 83.8551H69.3008" stroke="#333333" stroke-width="2.92968" stroke-miterlimit="10" stroke-linecap="round" stroke-linejoin="round"/>
<path d="M76.2125 83.8551H76.1992" stroke="#333333" stroke-width="2.92968" stroke-miterlimit="10" stroke-linecap="round" stroke-linejoin="round"/>
<path d="M83.1109 83.8551H83.0977" stroke="#333333" stroke-width="2.92968" stroke-miterlimit="10" stroke-linecap="round" stroke-linejoin="round"/>
<path d="M90.0113 83.8551H89.998" stroke="#333333" stroke-width="2.92968" stroke-miterlimit="10" stroke-linecap="round" stroke-linejoin="round"/>
<path d="M53.8793 81.0217C55.7219 81.0217 57.2156 79.5279 57.2156 77.6853C57.2156 75.8427 55.7219 74.349 53.8793 74.349C52.0367 74.349 50.543 75.8427 50.543 77.6853C50.543 79.5279 52.0367 81.0217 53.8793 81.0217Z" stroke="#333333" stroke-width="2.92968" stroke-miterlimit="10" stroke-linecap="round" stroke-linejoin="round"/>
<path d="M53.8793 67.6131C55.7219 67.6131 57.2156 66.1194 57.2156 64.2768C57.2156 62.4342 55.7219 60.9405 53.8793 60.9405C52.0367 60.9405 50.543 62.4342 50.543 64.2768C50.543 66.1194 52.0367 67.6131 53.8793 67.6131Z" stroke="#333333" stroke-width="2.92968" stroke-miterlimit="10" stroke-linecap="round" stroke-linejoin="round"/>
<path d="M11.6562 82.7209H17.9008" stroke="#333333" stroke-width="2.92968" stroke-miterlimit="10" stroke-linecap="round" stroke-linejoin="round"/>
<path d="M10.2969 35.0383H25.3574" stroke="#333333" stroke-width="2.92968" stroke-miterlimit="10" stroke-linecap="round" stroke-linejoin="round"/>
<path d="M26.0488 44.6846H9.60938" stroke="#333333" stroke-width="2.92968" stroke-miterlimit="10" stroke-linecap="round" stroke-linejoin="round"/>
<path d="M24.7148 25.9875H10.9434" stroke="#333333" stroke-width="2.92968" stroke-miterlimit="10" stroke-linecap="round" stroke-linejoin="round"/>
<path d="M48.1348 25.9875H34.3633" stroke="#333333" stroke-width="2.92968" stroke-miterlimit="10" stroke-linecap="round" stroke-linejoin="round"/>
<path d="M33.7207 35.0383H48.7813" stroke="#333333" stroke-width="2.92968" stroke-miterlimit="10" stroke-linecap="round" stroke-linejoin="round"/>
<path d="M45.3936 44.6849H33.0312" stroke="#333333" stroke-width="2.92968" stroke-miterlimit="10" stroke-linecap="round" stroke-linejoin="round"/>
</svg>
