<svg width="30" height="30" viewBox="0 0 30 30" fill="none" xmlns="http://www.w3.org/2000/svg">
<g clip-path="url(#clip0_268_815)">
<path d="M7.44809 4.73756L6.42246 2.25285C6.25152 1.82551 5.83642 1.55074 5.37848 1.55074H1.12945C0.506694 1.55074 0 2.0575 0 2.68026V19.1454C0 20.0673 0.750928 20.8181 1.66661 20.8181C2.11224 20.8181 2.52741 20.6411 2.83264 20.3298C3.15011 20.0123 3.32716 19.5911 3.32716 19.1454V9.71923C3.32716 9.37735 3.60186 9.10871 3.93768 9.10871H21.5384C22.1611 9.10871 22.7288 9.31024 23.1989 9.64593V6.77658C23.1989 5.86083 22.4541 5.11602 21.5384 5.11602H8.00972C7.76549 5.11609 7.53961 4.96351 7.44809 4.73756Z" fill="#F0FF42"/>
<path d="M16.2261 20.7146L15.5363 20.2139C14.7853 19.6584 14.5656 18.6328 15.0234 17.8208L16.159 15.8611C16.4764 15.2994 17.0869 14.9453 17.7463 14.9453C18.0088 14.9453 18.2591 15.0003 18.4972 15.1101L19.2664 15.452C19.4923 15.3055 19.7243 15.1651 19.9624 15.0491L20.0539 14.2005C20.1455 13.2725 20.927 12.5644 21.8733 12.5644H23.1981V11.9966C23.1981 11.0748 22.4533 10.3299 21.5375 10.3299H4.54725V19.1455C4.54725 19.7561 4.3519 20.3299 4.00391 20.8183H16.22C16.22 20.7817 16.2261 20.7512 16.2261 20.7146Z" fill="#F0FF42"/>
<path d="M17.2166 25.7631C17.3693 26.0317 17.705 26.1416 17.9919 26.0134L19.4205 25.3785C19.9211 25.7942 20.495 26.1294 21.1055 26.3492L21.2704 27.9065C21.3009 28.2173 21.5634 28.4493 21.8748 28.4493H24.1337C24.4451 28.4493 24.7075 28.2173 24.7381 27.9065L24.9029 26.3492C25.5135 26.1294 26.0873 25.7942 26.588 25.3785L28.0165 26.0134C28.3035 26.1416 28.6393 26.0317 28.7919 25.7631L29.9213 23.8102C30.074 23.5409 30.0007 23.1929 29.7504 23.0104L28.4866 22.0879C28.5416 21.7643 28.5721 21.4347 28.5721 21.1172C28.5721 20.7997 28.5416 20.4701 28.4866 20.1472L29.7504 19.2247C30.0007 19.0421 30.074 18.6936 29.9213 18.4249L28.7919 16.472C28.6392 16.2033 28.3035 16.0928 28.0165 16.221L26.588 16.8559C26.0873 16.4408 25.5135 16.105 24.9029 15.8858L24.7381 14.3285C24.7076 14.0177 24.4451 13.7851 24.1337 13.7851H21.8748C21.5634 13.7851 21.3009 14.0177 21.2704 14.3285L21.1055 15.8858C20.495 16.105 19.9211 16.4408 19.4205 16.8559L17.9919 16.221C17.7111 16.0928 17.3693 16.2033 17.2166 16.472L16.0872 18.4249C15.9345 18.6935 16.0078 19.0421 16.2581 19.2247L17.528 20.1472C17.4669 20.4701 17.4364 20.7997 17.4364 21.1172C17.4364 21.4347 17.4669 21.7643 17.528 22.0879L16.2581 23.0104C16.0078 23.1929 15.9345 23.5409 16.0872 23.8102L17.2166 25.7631ZM23.0042 18.729C24.3204 18.729 25.3931 19.801 25.3931 21.1172C25.3931 22.434 24.3204 23.5061 23.0042 23.5061C21.6874 23.5061 20.6153 22.4341 20.6153 21.1172C20.6153 19.801 21.6874 18.729 23.0042 18.729Z" fill="#F0FF42"/>
</g>
<defs>
<clipPath id="clip0_268_815">
<rect width="30" height="30" fill="white"/>
</clipPath>
</defs>
</svg>
