<svg width="30" height="30" viewBox="0 0 30 30" fill="none" xmlns="http://www.w3.org/2000/svg">
<path d="M4.795 19.8013C5.625 20.5437 6.56625 21.1325 7.575 21.575L12.88 18.2437C13.9775 17.5513 15.4475 17.715 16.3663 18.6388L18.15 20.4225C20.8238 18.4513 22.5 15.2975 22.5 11.875C22.5 6.01625 17.7338 1.25 11.875 1.25C6.01625 1.25 1.25 6.01625 1.25 11.875C1.25 14.8988 2.54125 17.7875 4.795 19.8013ZM12.35 12.8125H11.4C9.93875 12.8125 8.75 11.6237 8.75 10.1625C8.75 8.84875 9.6975 7.7675 10.9375 7.5475V6.5625C10.9375 6.045 11.3575 5.625 11.875 5.625C12.3925 5.625 12.8125 6.045 12.8125 6.5625V7.5H14.0625C14.58 7.5 15 7.92 15 8.4375C15 8.955 14.58 9.375 14.0625 9.375H11.4C10.9725 9.375 10.625 9.7225 10.625 10.15C10.625 10.59 10.9725 10.9375 11.4 10.9375H12.35C13.8113 10.9375 15 12.1263 15 13.5875C15 14.9012 14.0525 15.9825 12.8125 16.2025V17.1862C12.8125 17.7037 12.3925 18.1237 11.875 18.1237C11.3575 18.1237 10.9375 17.7037 10.9375 17.1862V16.25H9.6875C9.17 16.25 8.75 15.83 8.75 15.3125C8.75 14.795 9.17 14.375 9.6875 14.375H12.35C12.7775 14.375 13.125 14.0275 13.125 13.6C13.125 13.16 12.7775 12.8125 12.35 12.8125Z" fill="#F0FF42"/>
<path d="M28.7495 15H23.7495C23.2445 15 22.787 15.305 22.5945 15.7712C22.4008 16.2387 22.5083 16.7762 22.8658 17.1337L24.482 18.75L19.3745 23.8575L15.2583 19.7413C14.8495 19.33 14.207 19.2587 13.717 19.5625L0.592045 27.6875C0.00454515 28.0512 -0.175455 28.8212 0.187045 29.4075C0.423295 29.79 0.832045 30 1.2508 30C1.4758 30 1.70205 29.94 1.90705 29.8125L14.1895 22.2088L18.4895 26.5088C18.9783 26.9975 19.7683 26.9975 20.257 26.5088L26.2495 20.5175L27.8658 22.1338C28.1045 22.3725 28.4245 22.5 28.7495 22.5C28.9108 22.5 29.0733 22.4687 29.2283 22.405C29.6958 22.2112 29.9995 21.755 29.9995 21.25V16.25C29.9995 15.56 29.4408 15 28.7495 15Z" fill="#F0FF42"/>
</svg>
