<svg width="100" height="100" viewBox="0 0 100 100" fill="none" xmlns="http://www.w3.org/2000/svg">
<g clip-path="url(#clip0_193_67718)">
<mask id="mask0_193_67718" style="mask-type:luminance" maskUnits="userSpaceOnUse" x="0" y="0" width="100" height="100">
<path d="M0 7.62939e-06H100V100H0V7.62939e-06Z" fill="white"/>
</mask>
<g mask="url(#mask0_193_67718)">
<path d="M28.0934 62.0105H23.8338C21.8719 62.0105 20.2812 63.6009 20.2812 65.5628V74.1081C20.2812 76.0702 21.8719 77.6606 23.8338 77.6606H28.0934C30.0553 77.6606 31.6457 76.0702 31.6457 74.1081V65.5628C31.6457 63.6009 30.0553 62.0105 28.0934 62.0105Z" stroke="#333333" stroke-width="2.90152" stroke-miterlimit="10" stroke-linecap="round" stroke-linejoin="round"/>
<path d="M28.0934 36.4968H23.8338C21.8719 36.4968 20.2812 38.0874 20.2812 40.0491V48.5946C20.2812 50.5565 21.8719 52.147 23.8338 52.147H28.0934C30.0553 52.147 31.6457 50.5565 31.6457 48.5946V40.0491C31.6457 38.0874 30.0553 36.4968 28.0934 36.4968Z" stroke="#333333" stroke-width="2.90152" stroke-miterlimit="10" stroke-linecap="round" stroke-linejoin="round"/>
<path d="M52.1303 36.4968H47.8707C45.9088 36.4968 44.3184 38.0874 44.3184 40.0491V48.5946C44.3184 50.5565 45.9088 52.147 47.8707 52.147H52.1303C54.0922 52.147 55.6826 50.5565 55.6826 48.5946V40.0491C55.6826 38.0874 54.0922 36.4968 52.1303 36.4968Z" stroke="#333333" stroke-width="2.90152" stroke-miterlimit="10" stroke-linecap="round" stroke-linejoin="round"/>
<path d="M71.9039 62.0105H76.1635C78.1254 62.0105 79.716 63.6009 79.716 65.5628V74.1081C79.716 76.0702 78.1254 77.6606 76.1635 77.6606H71.9039C69.942 77.6606 68.3516 76.0702 68.3516 74.1081V65.5628C68.3516 63.6009 69.942 62.0105 71.9039 62.0105Z" stroke="#333333" stroke-width="2.90152" stroke-miterlimit="10" stroke-linecap="round" stroke-linejoin="round"/>
<path d="M71.9039 36.4968H76.1635C78.1254 36.4968 79.716 38.0874 79.716 40.0491V48.5946C79.716 50.5565 78.1254 52.147 76.1635 52.147H71.9039C69.942 52.147 68.3516 50.5565 68.3516 48.5946V40.0491C68.3516 38.0874 69.942 36.4968 71.9039 36.4968Z" stroke="#333333" stroke-width="2.90152" stroke-miterlimit="10" stroke-linecap="round" stroke-linejoin="round"/>
<path d="M71.9238 7.8128V18.9099C72.0465 18.9308 75.8129 18.9099 75.8129 18.9099" stroke="#333333" stroke-width="2.90152" stroke-miterlimit="10" stroke-linecap="round" stroke-linejoin="round"/>
<path d="M24.1875 7.81274V18.9192" stroke="#333333" stroke-width="2.90152" stroke-miterlimit="10" stroke-linecap="round" stroke-linejoin="round"/>
<path d="M31.875 7.81245V18.9189" stroke="#333333" stroke-width="2.90152" stroke-miterlimit="10" stroke-linecap="round" stroke-linejoin="round"/>
<path d="M24.1875 13.1752H31.8732" stroke="#333333" stroke-width="2.90152" stroke-miterlimit="10" stroke-linecap="round" stroke-linejoin="round"/>
<path d="M66.6918 7.91408H62.0547V18.9192H66.6918" stroke="#333333" stroke-width="2.90152" stroke-miterlimit="10" stroke-linecap="round" stroke-linejoin="round"/>
<path d="M66.3498 13.4163H62.0547" stroke="#333333" stroke-width="2.90152" stroke-miterlimit="10" stroke-linecap="round" stroke-linejoin="round"/>
<path d="M50.8301 7.81274H56.9637" stroke="#333333" stroke-width="2.90152" stroke-miterlimit="10" stroke-linecap="round" stroke-linejoin="round"/>
<path d="M53.8848 8.16742V18.9192" stroke="#333333" stroke-width="2.90152" stroke-miterlimit="10" stroke-linecap="round" stroke-linejoin="round"/>
<path d="M47.5986 13.3658C47.5986 16.4328 45.1123 18.9189 42.0453 18.9189C38.9785 18.9189 36.4922 16.4328 36.4922 13.3658C36.4922 10.2988 38.9785 7.8125 42.0453 7.8125C45.1123 7.8125 47.5986 10.2988 47.5986 13.3658Z" stroke="#333333" stroke-width="2.90152" stroke-miterlimit="10" stroke-linecap="round" stroke-linejoin="round"/>
<path d="M22.1816 25.1722H77.8182C79.5867 25.1722 81.2518 25.6125 82.7127 26.3867V9.37515C82.7127 5.00641 79.1713 1.465 74.8024 1.465H25.1973C20.8287 1.465 17.2871 5.00641 17.2871 9.37515V26.3867C18.748 25.6125 20.4131 25.1722 22.1816 25.1722Z" stroke="#333333" stroke-width="2.90152" stroke-miterlimit="10" stroke-linecap="round" stroke-linejoin="round"/>
<path d="M11.7109 71.3549V85.5984C11.9379 85.5722 12.1682 85.5574 12.4021 85.5574H87.5963C87.8301 85.5574 88.0604 85.5722 88.2873 85.5984V50.4822" stroke="#333333" stroke-width="2.90152" stroke-miterlimit="10" stroke-linecap="round" stroke-linejoin="round"/>
<path d="M88.2873 44.6229V35.6422C88.2873 29.86 83.5998 25.1725 77.8174 25.1725H22.1809C16.3984 25.1725 11.7109 29.86 11.7109 35.6422V65.4955" stroke="#333333" stroke-width="2.90152" stroke-miterlimit="10" stroke-linecap="round" stroke-linejoin="round"/>
<path d="M59.7834 85.557V66.9005C59.7834 64.1994 57.5937 62.0099 54.8928 62.0099H45.1074C42.4064 62.0099 40.2168 64.1994 40.2168 66.9005V85.557H59.7834Z" stroke="#333333" stroke-width="2.90152" stroke-miterlimit="10" stroke-linecap="round" stroke-linejoin="round"/>
<path d="M87.5975 85.5572H12.4033C9.1043 85.5572 6.42969 88.2316 6.42969 91.5307V95.2154C6.42969 97.0488 7.91602 98.5352 9.74961 98.5352H90.2512C92.0848 98.5352 93.5709 97.0488 93.5709 95.2154V91.5307C93.5709 88.2316 90.8965 85.5572 87.5975 85.5572Z" stroke="#333333" stroke-width="2.90152" stroke-miterlimit="10" stroke-linecap="round" stroke-linejoin="round"/>
</g>
</g>
<defs>
<clipPath id="clip0_193_67718">
<rect width="100" height="100" fill="white"/>
</clipPath>
</defs>
</svg>
