<svg width="16" height="16" viewBox="0 0 16 16" fill="none" xmlns="http://www.w3.org/2000/svg">
<path fill-rule="evenodd" clip-rule="evenodd" d="M2.33398 6.87867C2.33398 3.81209 4.89657 1.3335 7.99628 1.3335C11.1047 1.3335 13.6673 3.81209 13.6673 6.87867C13.6673 8.42396 13.1053 9.85858 12.1803 11.0745C11.1599 12.4158 9.90209 13.5845 8.48635 14.5018C8.16232 14.7138 7.8699 14.7298 7.51428 14.5018C6.09047 13.5845 4.83271 12.4158 3.82098 11.0745C2.89531 9.85858 2.33398 8.42396 2.33398 6.87867ZM6.13014 7.05133C6.13014 8.07863 6.96842 8.88661 7.99628 8.88661C9.02481 8.88661 9.87116 8.07863 9.87116 7.05133C9.87116 6.03203 9.02481 5.18472 7.99628 5.18472C6.96842 5.18472 6.13014 6.03203 6.13014 7.05133Z" fill="#D9D9D9"/>
</svg>
