<svg width="20" height="21" viewBox="0 0 20 21" fill="none" xmlns="http://www.w3.org/2000/svg">
<path d="M9.0575 14.3591C9.00917 14.3121 8.8025 14.1343 8.6325 13.9687C7.56333 12.9977 5.81333 10.4648 5.27917 9.13915C5.19333 8.93781 5.01167 8.4288 5 8.15684C5 7.89625 5.06 7.64783 5.18167 7.41078C5.35167 7.11528 5.61917 6.87823 5.935 6.74834C6.15417 6.66472 6.81 6.53483 6.82167 6.53483C7.53917 6.40494 8.705 6.3335 9.99333 6.3335C11.2208 6.3335 12.3392 6.40494 13.0675 6.51128C13.0792 6.52346 13.8942 6.65335 14.1733 6.79542C14.6833 7.05602 15 7.56503 15 8.10976V8.15684C14.9875 8.51161 14.6708 9.25767 14.6592 9.25767C14.1242 10.5119 12.46 12.9864 11.3542 13.9808C11.3542 13.9808 11.07 14.2609 10.8925 14.3827C10.6375 14.5727 10.3217 14.6668 10.0058 14.6668C9.65333 14.6668 9.325 14.5605 9.0575 14.3591Z" fill="white"/>
</svg>
