<svg width="16" height="16" viewBox="0 0 16 16" fill="none" xmlns="http://www.w3.org/2000/svg">
<path fill-rule="evenodd" clip-rule="evenodd" d="M5.11144 14.6668H10.8892C13.1494 14.6668 14.6673 13.0814 14.6673 10.7223V5.27798C14.6673 2.9189 13.1494 1.3335 10.8899 1.3335H5.11144C2.85192 1.3335 1.33398 2.9189 1.33398 5.27798V10.7223C1.33398 13.0814 2.85192 14.6668 5.11144 14.6668ZM5.66656 7.33349C4.74746 7.33349 4.00065 6.58567 4.00065 5.66683C4.00065 4.74798 4.74746 4.00016 5.66656 4.00016C6.58499 4.00016 7.33247 4.74798 7.33247 5.66683C7.33247 6.58567 6.58499 7.33349 5.66656 7.33349ZM13.2145 9.95613C13.4378 10.5285 13.3218 11.2165 13.0831 11.7834C12.8002 12.4577 12.2586 12.9682 11.5761 13.1911C11.2731 13.2902 10.9553 13.3335 10.6383 13.3335H5.01975C4.46065 13.3335 3.96591 13.1993 3.56032 12.9496C3.30625 12.7927 3.26133 12.4308 3.44971 12.1962C3.76479 11.8041 4.07585 11.4105 4.38959 11.0136C4.98757 10.254 5.39048 10.0339 5.83829 10.2272C6.01997 10.307 6.20231 10.4267 6.39002 10.5533C6.89013 10.8932 7.58532 11.3603 8.50106 10.8533C9.12773 10.5023 9.4912 9.90025 9.80771 9.37598L9.81301 9.36721C9.83544 9.33043 9.85766 9.29365 9.87983 9.25697C9.9862 9.08096 10.0912 8.90731 10.2099 8.74732C10.3587 8.54712 10.9104 7.92104 11.6251 8.36686C12.0803 8.64756 12.463 9.02734 12.8726 9.43394C13.0288 9.58943 13.1401 9.76624 13.2145 9.95613Z" fill="#D9D9D9"/>
</svg>
