<svg width="12" height="12" viewBox="0 0 12 12" fill="none" xmlns="http://www.w3.org/2000/svg">
<path fill-rule="evenodd" clip-rule="evenodd" d="M3.835 1H8.16999C9.86499 1 11 2.19 11 3.96V8.0455C11 9.81 9.86499 11 8.16999 11H3.835C2.14 11 1 9.81 1 8.0455V3.96C1 2.19 2.14 1 3.835 1ZM5.71499 7.495L8.08999 5.12C8.25999 4.95 8.25999 4.675 8.08999 4.5C7.91999 4.33 7.63999 4.33 7.46999 4.5L5.40499 6.565L4.53 5.69C4.36 5.52 4.08 5.52 3.91 5.69C3.74 5.86 3.74 6.135 3.91 6.31L5.09999 7.495C5.18499 7.58 5.29499 7.62 5.40499 7.62C5.51999 7.62 5.62999 7.58 5.71499 7.495Z" fill="#F0FF42"/>
</svg>
