<svg width="16" height="16" viewBox="0 0 16 16" fill="none" xmlns="http://www.w3.org/2000/svg">
<path fill-rule="evenodd" clip-rule="evenodd" d="M4.07601 3H7.93738C9.55206 3 10.6794 4.11269 10.6794 5.70728V10.2927C10.6794 11.8873 9.55206 13 7.93738 13H4.07601C2.46133 13 1.33398 11.8873 1.33398 10.2927V5.70728C1.33398 4.11269 2.46133 3 4.07601 3ZM13.306 4.58599C13.5986 4.43709 13.942 4.45266 14.2213 4.62863C14.5006 4.80393 14.6673 5.10849 14.6673 5.44149V10.5589C14.6673 10.8926 14.5006 11.1965 14.2213 11.3718C14.0686 11.4672 13.898 11.5159 13.726 11.5159C13.5826 11.5159 13.4393 11.4821 13.3053 11.4137L12.3179 10.9156C11.9526 10.7302 11.7259 10.3579 11.7259 9.94437V6.05536C11.7259 5.64115 11.9526 5.2689 12.3179 5.08481L13.306 4.58599Z" fill="#D9D9D9"/>
</svg>
