<svg width="24" height="24" viewBox="0 0 24 24" fill="none" xmlns="http://www.w3.org/2000/svg">
<path d="M18.1667 14.3797C17.495 14.2352 16.9637 14.547 16.4932 14.8194C16.0113 15.1001 15.0951 15.8433 14.5699 15.6531C11.881 14.546 9.35209 12.1925 8.25736 9.49285C8.06441 8.95646 8.80421 8.03439 9.08279 7.54685C9.35313 7.07491 9.65854 6.53851 9.51925 5.86178C9.39337 5.25365 7.76519 3.18187 7.18945 2.61533C6.80974 2.2411 6.42076 2.03527 6.02145 2.00201C4.52018 1.93756 2.84351 3.94073 2.54945 4.41995C1.81275 5.44181 1.81687 6.80151 2.56183 8.4502C4.35716 12.8786 11.1474 19.5617 15.5924 21.4246C16.4127 21.8081 17.1628 22.0005 17.8366 22.0005C18.4959 22.0005 19.083 21.8165 19.5875 21.4516C19.9683 21.2322 22.0535 19.4723 21.9988 17.9307C21.9658 17.5378 21.7605 17.1448 21.3911 16.7644C20.8288 16.1833 18.7703 14.5065 18.1667 14.3797Z" fill="#333333"/>
</svg>
