<svg width="30" height="30" viewBox="0 0 30 30" fill="none" xmlns="http://www.w3.org/2000/svg">
<g clip-path="url(#clip0_277_1611)">
<path d="M27.1105 2.88927C25.4911 1.27036 23.359 0.265137 21.0796 0.0458933C18.8003 -0.173351 16.5157 0.407037 14.6173 1.68758C12.719 2.96812 11.3252 4.86908 10.6747 7.06462C10.0243 9.26017 10.1578 11.6136 11.0523 13.7215C7.32286 16.9847 3.8072 20.4845 0.527142 24.1992C0.146283 24.6287 -0.0371153 25.2246 0.00624405 25.8322C0.0722597 26.7623 0.121674 27.6748 0.154486 28.5697C0.162946 28.9055 0.300116 29.2252 0.537635 29.4628C0.775155 29.7003 1.09486 29.8375 1.43066 29.8459C2.32363 29.8764 3.23769 29.9279 4.16757 29.9936C4.77519 30.0369 5.37109 29.8529 5.80292 29.4715C6.00839 29.2899 6.21328 29.1076 6.41757 28.9248C6.57287 28.7862 6.67312 28.5963 6.69999 28.3899C6.76835 27.8859 6.83222 27.377 6.8916 26.8629C6.98242 26.0777 7.69433 25.5651 8.52226 25.7162C10.0416 25.9963 11.2369 24.8315 10.9627 23.3139V23.3022C10.815 22.4748 11.3336 21.767 12.1293 21.6885C12.6426 21.6373 13.1529 21.5834 13.6603 21.5268C13.8702 21.5048 14.0649 21.4073 14.2082 21.2526C14.909 20.4943 15.5996 19.7264 16.2801 18.9486C18.3881 19.8429 20.7415 19.9762 22.937 19.3255C25.1324 18.6748 27.0332 17.2808 28.3136 15.3823C29.5939 13.4839 30.174 11.1992 29.9546 8.91985C29.7351 6.64054 28.7296 4.50854 27.1105 2.88927ZM24.5506 9.30821C24.169 9.68963 23.6829 9.94934 23.1537 10.0545C22.6245 10.1597 22.0761 10.1056 21.5776 9.89907C21.0792 9.69255 20.6532 9.34288 20.3535 8.89426C20.0538 8.44565 19.8938 7.91824 19.8938 7.37872C19.8938 6.8392 20.0538 6.31179 20.3535 5.86318C20.6532 5.41457 21.0792 5.0649 21.5776 4.85838C22.0761 4.65186 22.6245 4.59776 23.1537 4.70293C23.6829 4.8081 24.169 5.06781 24.5506 5.44923C24.804 5.70257 25.0051 6.00337 25.1423 6.33444C25.2794 6.66551 25.35 7.02036 25.35 7.37872C25.35 7.73708 25.2794 8.09193 25.1423 8.423C25.0051 8.75407 24.804 9.05487 24.5506 9.30821Z" fill="#F0FF42"/>
</g>
<defs>
<clipPath id="clip0_277_1611">
<rect width="30" height="30" fill="white"/>
</clipPath>
</defs>
</svg>
