<svg width="30" height="30" viewBox="0 0 30 30" fill="none" xmlns="http://www.w3.org/2000/svg">
<g clip-path="url(#clip0_277_1621)">
<path d="M0.906492 1.75439H4.44451V4.55632C3.42351 4.91843 2.69012 5.89346 2.69012 7.03703C2.69012 8.48809 3.87059 9.66862 5.3217 9.66862C6.77282 9.66862 7.95329 8.48809 7.95329 7.03703C7.95329 5.89346 7.2199 4.91843 6.1989 4.55632V1.75439H11.4623V4.55632C10.4413 4.91843 9.70791 5.89346 9.70791 7.03703C9.70791 8.48809 10.8884 9.66862 12.3395 9.66862C13.7906 9.66862 14.9711 8.48809 14.9711 7.03703C14.9711 5.89346 14.2377 4.91843 13.2167 4.55632V1.75439H16.7547C17.2391 1.75439 17.6318 1.36164 17.6318 0.877195C17.6318 0.392749 17.2391 0 16.7547 0H0.906492C0.422046 0 0.0292969 0.392749 0.0292969 0.877195C0.0292969 1.36164 0.421988 1.75439 0.906492 1.75439Z" fill="#F0FF42"/>
<path d="M16.7539 8.36206C16.7539 8.8465 17.1467 9.23925 17.6311 9.23925H17.9236V7.48486H17.6311C17.1466 7.48486 16.7539 7.87761 16.7539 8.36206Z" fill="#F0FF42"/>
<path d="M28.2163 9.23925C28.7008 9.23925 29.0935 8.8465 29.0935 8.36206C29.0935 7.87761 28.7008 7.48486 28.2163 7.48486H27.9238V9.23925H28.2163Z" fill="#F0FF42"/>
<path d="M27.9238 6.60763C27.9238 5.15658 26.7433 3.97605 25.2923 3.97605H23.801V3.68359C23.801 3.19915 23.4082 2.8064 22.9238 2.8064C22.4393 2.8064 22.0466 3.19915 22.0466 3.68359V3.97605H20.5554C19.1043 3.97605 17.9238 5.15658 17.9238 6.60763V7.48494H27.9238V6.60763Z" fill="#F0FF42"/>
<path d="M29.0937 14.7366H0.906492C0.422046 14.7366 0.0292969 15.1294 0.0292969 15.6138V18.2456H29.9709V15.6138C29.9709 15.1293 29.5781 14.7366 29.0937 14.7366Z" fill="#F0FF42"/>
<path d="M8.83008 30H15.8769V20H8.83008V30ZM10.5846 24.4152C10.5846 23.9308 10.9774 23.538 11.4618 23.538C11.9463 23.538 12.339 23.9308 12.339 24.4152V25.5849C12.339 26.0693 11.9463 26.4621 11.4618 26.4621C10.9774 26.4621 10.5846 26.0693 10.5846 25.5849V24.4152Z" fill="#F0FF42"/>
<path d="M0.0292969 29.1228C0.0292969 29.6073 0.422046 30 0.906492 30H7.07621V20H0.0292969V29.1228ZM3.56685 24.4152C3.56685 23.9308 3.9596 23.538 4.44404 23.538C4.92849 23.538 5.32124 23.9308 5.32124 24.4152V25.5849C5.32124 26.0693 4.92849 26.4621 4.44404 26.4621C3.9596 26.4621 3.56685 26.0693 3.56685 25.5849V24.4152Z" fill="#F0FF42"/>
<path d="M22.0176 23.5088H25.5847V26.4914H22.0176V23.5088Z" fill="#F0FF42"/>
<path d="M17.6309 30H29.0928C29.5771 30 29.9699 29.6073 29.9699 29.1228V20H17.6309V30ZM20.2624 22.6316C20.2624 22.1471 20.6552 21.7544 21.1396 21.7544H26.4612C26.9456 21.7544 27.3384 22.1471 27.3384 22.6316V27.3685C27.3384 27.8529 26.9456 28.2457 26.4612 28.2457H21.1397C20.6552 28.2457 20.2625 27.8529 20.2625 27.3685L20.2624 22.6316Z" fill="#F0FF42"/>
<path d="M17.9238 11.2277C17.9238 11.9013 18.1784 12.5162 18.5961 12.9822H27.2516C27.6692 12.5162 27.9238 11.9013 27.9238 11.2277V9.23926H17.9238V11.2277Z" fill="#F0FF42"/>
</g>
<defs>
<clipPath id="clip0_277_1621">
<rect width="30" height="30" fill="white"/>
</clipPath>
</defs>
</svg>
