<svg width="30" height="30" viewBox="0 0 30 30" fill="none" xmlns="http://www.w3.org/2000/svg">
<path d="M15.4688 12.6562V4.21875H1.40625V12.6562C1.40625 13.1535 1.60379 13.6304 1.95542 13.9821C2.30706 14.3337 2.78397 14.5312 3.28125 14.5312H13.5938C14.091 14.5312 14.5679 14.3337 14.9196 13.9821C15.2712 13.6304 15.4688 13.1535 15.4688 12.6562ZM10.7812 5.625C10.7812 5.50068 10.8306 5.38145 10.9185 5.29354C11.0065 5.20564 11.1257 5.15625 11.25 5.15625H13.125C13.2493 5.15625 13.3685 5.20564 13.4565 5.29354C13.5444 5.38145 13.5938 5.50068 13.5938 5.625V8.4375C13.5938 8.56182 13.5444 8.68105 13.4565 8.76896C13.3685 8.85686 13.2493 8.90625 13.125 8.90625H11.25C11.1257 8.90625 11.0065 8.85686 10.9185 8.76896C10.8306 8.68105 10.7812 8.56182 10.7812 8.4375V5.625ZM4.21875 13.5938H3.28125V9.84375H4.21875V13.5938ZM4.21875 8.90625H3.28125V5.15625H4.21875V8.90625ZM7.96875 13.125C7.96875 13.2493 7.91936 13.3685 7.83146 13.4565C7.74355 13.5444 7.62432 13.5938 7.5 13.5938H5.625C5.50068 13.5938 5.38145 13.5444 5.29354 13.4565C5.20564 13.3685 5.15625 13.2493 5.15625 13.125V10.3125C5.15625 10.1882 5.20564 10.069 5.29354 9.98104C5.38145 9.89314 5.50068 9.84375 5.625 9.84375H7.5C7.62432 9.84375 7.74355 9.89314 7.83146 9.98104C7.91936 10.069 7.96875 10.1882 7.96875 10.3125V13.125ZM7.96875 8.4375C7.96875 8.56182 7.91936 8.68105 7.83146 8.76896C7.74355 8.85686 7.62432 8.90625 7.5 8.90625H5.625C5.50068 8.90625 5.38145 8.85686 5.29354 8.76896C5.20564 8.68105 5.15625 8.56182 5.15625 8.4375V5.625C5.15625 5.50068 5.20564 5.38145 5.29354 5.29354C5.38145 5.20564 5.50068 5.15625 5.625 5.15625H7.5C7.62432 5.15625 7.74355 5.20564 7.83146 5.29354C7.91936 5.38145 7.96875 5.50068 7.96875 5.625V8.4375ZM9.84375 13.5938H8.90625V9.84375H9.84375V13.5938ZM9.84375 8.90625H8.90625V5.15625H9.84375V8.90625ZM13.125 13.5938H11.25C11.1257 13.5938 11.0065 13.5444 10.9185 13.4565C10.8306 13.3685 10.7812 13.2493 10.7812 13.125V10.3125C10.7812 10.1882 10.8306 10.069 10.9185 9.98104C11.0065 9.89314 11.1257 9.84375 11.25 9.84375H13.125C13.2493 9.84375 13.3685 9.89314 13.4565 9.98104C13.5444 10.069 13.5938 10.1882 13.5938 10.3125V13.125C13.5938 13.2493 13.5444 13.3685 13.4565 13.4565C13.3685 13.5444 13.2493 13.5938 13.125 13.5938Z" fill="#F0FF42"/>
<path d="M6.09375 6.09375H7.03125V7.96875H6.09375V6.09375Z" fill="#F0FF42"/>
<path d="M11.7188 10.7812H12.6562V12.6562H11.7188V10.7812Z" fill="#F0FF42"/>
<path d="M13.5938 1.40625H3.28125C2.78397 1.40625 2.30706 1.60379 1.95542 1.95542C1.60379 2.30706 1.40625 2.78397 1.40625 3.28125H15.4688C15.4688 2.78397 15.2712 2.30706 14.9196 1.95542C14.5679 1.60379 14.091 1.40625 13.5938 1.40625Z" fill="#F0FF42"/>
<path d="M28.5938 12.6562C28.5938 12.2747 25.9022 10.7812 18.2813 10.7812C17.6503 10.7812 17.0236 10.7967 16.4063 10.8202V12.6562C16.4063 13.3151 16.1739 13.9528 15.75 14.4572C16.5764 14.5012 17.4169 14.5312 18.2813 14.5312C25.9022 14.5312 28.5938 13.0378 28.5938 12.6562Z" fill="#F0FF42"/>
<path d="M11.7188 6.09375H12.6562V7.96875H11.7188V6.09375Z" fill="#F0FF42"/>
<path d="M6.09375 10.7812H7.03125V12.6562H6.09375V10.7812Z" fill="#F0FF42"/>
<path d="M10.3125 25.7812C10.5714 25.7812 10.7812 25.5714 10.7812 25.3125C10.7812 25.0536 10.5714 24.8438 10.3125 24.8438C10.0536 24.8438 9.84375 25.0536 9.84375 25.3125C9.84375 25.5714 10.0536 25.7812 10.3125 25.7812Z" fill="#F0FF42"/>
<path d="M10.3125 17.8125C10.5714 17.8125 10.7812 17.6026 10.7812 17.3438C10.7812 17.0849 10.5714 16.875 10.3125 16.875C10.0536 16.875 9.84375 17.0849 9.84375 17.3438C9.84375 17.6026 10.0536 17.8125 10.3125 17.8125Z" fill="#F0FF42"/>
<path d="M28.1442 20.2083C25.8239 21.247 21.1266 21.5625 18.2812 21.5625C15.4359 21.5625 10.7386 21.247 8.41828 20.2083C8.05594 20.4183 7.96875 20.5781 7.96875 20.625C7.96875 21.0066 10.6603 22.5 18.2812 22.5C25.9022 22.5 28.5938 21.0066 28.5938 20.625C28.5938 20.5781 28.5066 20.4183 28.1442 20.2083Z" fill="#F0FF42"/>
<path d="M7.96875 21.8573V26.7188C7.96875 27.1003 10.6603 28.5938 18.2812 28.5938C25.9022 28.5938 28.5938 27.1003 28.5938 26.7188V21.8573C26.4867 23.078 21.3239 23.4375 18.2812 23.4375C15.2386 23.4375 10.0781 23.078 7.96875 21.8573ZM10.3125 26.7188C10.0344 26.7188 9.76249 26.6363 9.53123 26.4818C9.29997 26.3272 9.11973 26.1076 9.01329 25.8506C8.90686 25.5937 8.87901 25.3109 8.93327 25.0382C8.98753 24.7654 9.12146 24.5148 9.31813 24.3181C9.5148 24.1215 9.76537 23.9875 10.0382 23.9333C10.3109 23.879 10.5937 23.9069 10.8506 24.0133C11.1076 24.1197 11.3272 24.3 11.4818 24.5312C11.6363 24.7625 11.7188 25.0344 11.7188 25.3125C11.7188 25.6855 11.5706 26.0431 11.3069 26.3069C11.0431 26.5706 10.6855 26.7188 10.3125 26.7188Z" fill="#F0FF42"/>
<path d="M14.4909 15.3192C14.2021 15.4178 13.899 15.4684 13.5938 15.4688H7.96875V18.75C7.96875 19.1316 10.6603 20.625 18.2812 20.625C25.9022 20.625 28.5938 19.1316 28.5938 18.75V13.8886C26.4867 15.1092 21.3239 15.4688 18.2812 15.4688C16.9772 15.4688 15.7031 15.4172 14.4909 15.3192ZM10.3125 18.75C10.0344 18.75 9.76249 18.6675 9.53123 18.513C9.29997 18.3585 9.11973 18.1389 9.01329 17.8819C8.90686 17.6249 8.87901 17.3422 8.93327 17.0694C8.98753 16.7966 9.12146 16.5461 9.31813 16.3494C9.5148 16.1527 9.76537 16.0188 10.0382 15.9645C10.3109 15.9103 10.5937 15.9381 10.8506 16.0445C11.1076 16.151 11.3272 16.3312 11.4818 16.5625C11.6363 16.7937 11.7188 17.0656 11.7188 17.3438C11.7188 17.7167 11.5706 18.0744 11.3069 18.3381C11.0431 18.6018 10.6855 18.75 10.3125 18.75Z" fill="#F0FF42"/>
</svg>
