<svg width="30" height="30" viewBox="0 0 30 30" fill="none" xmlns="http://www.w3.org/2000/svg">
<g clip-path="url(#clip0_277_1561)">
<path d="M20.332 10.6641C15.0011 10.6641 10.6641 15.0011 10.6641 20.332C10.6641 25.6629 15.0011 30 20.332 30C25.6629 30 30 25.6629 30 20.332C30 15.0011 25.6629 10.6641 20.332 10.6641ZM20.332 19.4531C21.786 19.4531 22.9688 20.6359 22.9688 22.0898C22.9688 23.2342 22.2318 24.2006 21.2109 24.5647V26.4844H19.4531V24.5647C18.4323 24.2006 17.6953 23.2342 17.6953 22.0898H19.4531C19.4531 22.5748 19.8471 22.9688 20.332 22.9688C20.817 22.9688 21.2109 22.5748 21.2109 22.0898C21.2109 21.6049 20.817 21.2109 20.332 21.2109C18.8781 21.2109 17.6953 20.0282 17.6953 18.5742C17.6953 17.4299 18.4323 16.4634 19.4531 16.0994V14.1797H21.2109V16.0994C22.2318 16.4634 22.9688 17.4299 22.9688 18.5742H21.2109C21.2109 18.0893 20.817 17.6953 20.332 17.6953C19.8471 17.6953 19.4531 18.0893 19.4531 18.5742C19.4531 19.0591 19.8471 19.4531 20.332 19.4531Z" fill="#F0FF42"/>
<path d="M9.78516 10.6641C15.2063 10.6641 19.4531 8.3475 19.4531 5.39062C19.4531 2.43375 15.2063 0 9.78516 0C4.36406 0 0 2.43375 0 5.39062C0 8.3475 4.36406 10.6641 9.78516 10.6641Z" fill="#F0FF42"/>
<path d="M0 19.7789V21.211C0 24.1678 4.36406 26.4844 9.78516 26.4844C10.0927 26.4844 10.3906 26.4561 10.6934 26.4413C10.0192 25.3813 9.51639 24.205 9.22031 22.9476C5.3001 22.8394 1.89621 21.6348 0 19.7789Z" fill="#F0FF42"/>
<path d="M8.9485 21.1662C8.92834 20.8897 8.90625 20.6136 8.90625 20.3321C8.90625 19.4158 9.02631 18.5291 9.23104 17.6747C5.30596 17.5683 1.89791 16.363 0 14.5054V15.9375C0 18.7375 3.94113 20.938 8.9485 21.1662Z" fill="#F0FF42"/>
<path d="M9.78516 15.9375C9.78609 15.9375 9.78686 15.9374 9.78785 15.9374C10.3675 14.552 11.2102 13.3031 12.2566 12.2568C11.4628 12.3571 10.6425 12.4219 9.78516 12.4219C5.61229 12.4219 1.98785 11.1775 0 9.23199V10.6641C0 13.621 4.36406 15.9375 9.78516 15.9375Z" fill="#F0FF42"/>
</g>
<defs>
<clipPath id="clip0_277_1561">
<rect width="30" height="30" fill="white"/>
</clipPath>
</defs>
</svg>
