<svg width="30" height="30" viewBox="0 0 30 30" fill="none" xmlns="http://www.w3.org/2000/svg">
<g clip-path="url(#clip0_271_1377)">
<path d="M14.375 5.625V0.625H0.625V24.375H20.625V6.875H15.625C15.2935 6.875 14.9755 6.7433 14.7411 6.50888C14.5067 6.27446 14.375 5.95652 14.375 5.625ZM7.31875 19.1937C3.925 22.5875 4.7125 22.475 2.68125 20.4437C2.56356 20.3261 2.49744 20.1664 2.49744 20C2.49744 19.8336 2.56356 19.6739 2.68125 19.5563C2.79894 19.4386 2.95856 19.3724 3.125 19.3724C3.29144 19.3724 3.45106 19.4386 3.56875 19.5563L4.375 20.3687L6.43125 18.3063C6.54894 18.1886 6.70856 18.1224 6.875 18.1224C7.04144 18.1224 7.20106 18.1886 7.31875 18.3063C7.43644 18.4239 7.50256 18.5836 7.50256 18.75C7.50256 18.9164 7.43644 19.0761 7.31875 19.1937ZM7.31875 13.5687C3.925 16.9625 4.7125 16.85 2.68125 14.8187C2.56356 14.7011 2.49744 14.5414 2.49744 14.375C2.49744 14.2086 2.56356 14.0489 2.68125 13.9313C2.79894 13.8136 2.95856 13.7474 3.125 13.7474C3.29144 13.7474 3.45106 13.8136 3.56875 13.9313L4.375 14.7437L6.43125 12.6813C6.54894 12.5636 6.70856 12.4974 6.875 12.4974C7.04144 12.4974 7.20106 12.5636 7.31875 12.6813C7.43644 12.7989 7.50256 12.9586 7.50256 13.125C7.50256 13.2914 7.43644 13.4511 7.31875 13.5687ZM7.31875 7.94375C3.925 11.3375 4.7125 11.225 2.68125 9.19375C2.62298 9.13548 2.57675 9.06629 2.54521 8.99016C2.51368 8.91402 2.49744 8.83241 2.49744 8.75C2.49744 8.58356 2.56356 8.42394 2.68125 8.30625C2.79894 8.18856 2.95856 8.12244 3.125 8.12244C3.29144 8.12244 3.45106 8.18856 3.56875 8.30625L4.375 9.11875L6.43125 7.05625C6.54894 6.93856 6.70856 6.87244 6.875 6.87244C7.04144 6.87244 7.20106 6.93856 7.31875 7.05625C7.43644 7.17394 7.50256 7.33356 7.50256 7.5C7.50256 7.66644 7.43644 7.82606 7.31875 7.94375ZM18.125 21.25H9.375C9.20924 21.25 9.05027 21.1842 8.93306 21.0669C8.81585 20.9497 8.75 20.7908 8.75 20.625C8.75 20.4592 8.81585 20.3003 8.93306 20.1831C9.05027 20.0658 9.20924 20 9.375 20H18.125C18.2908 20 18.4497 20.0658 18.5669 20.1831C18.6842 20.3003 18.75 20.4592 18.75 20.625C18.75 20.7908 18.6842 20.9497 18.5669 21.0669C18.4497 21.1842 18.2908 21.25 18.125 21.25ZM18.125 15.625H9.375C9.20924 15.625 9.05027 15.5592 8.93306 15.4419C8.81585 15.3247 8.75 15.1658 8.75 15C8.75 14.8342 8.81585 14.6753 8.93306 14.5581C9.05027 14.4408 9.20924 14.375 9.375 14.375H18.125C18.2908 14.375 18.4497 14.4408 18.5669 14.5581C18.6842 14.6753 18.75 14.8342 18.75 15C18.75 15.1658 18.6842 15.3247 18.5669 15.4419C18.4497 15.5592 18.2908 15.625 18.125 15.625ZM18.125 10H9.375C9.20924 10 9.05027 9.93415 8.93306 9.81694C8.81585 9.69973 8.75 9.54076 8.75 9.375C8.75 9.20924 8.81585 9.05027 8.93306 8.93306C9.05027 8.81585 9.20924 8.75 9.375 8.75H18.125C18.2908 8.75 18.4497 8.81585 18.5669 8.93306C18.6842 9.05027 18.75 9.20924 18.75 9.375C18.75 9.54076 18.6842 9.69973 18.5669 9.81694C18.4497 9.93415 18.2908 10 18.125 10Z" fill="#F0FF42"/>
<path d="M15.625 5.625H20.625L15.625 0.625V5.625Z" fill="#F0FF42"/>
<path d="M28.025 13.35L29.375 12.5625L27.5 9.3125L26.1313 10.1C25.6119 9.65594 25.0171 9.30876 24.375 9.075V7.5H21.875V11.9562C22.2447 11.8596 22.6317 11.849 23.0062 11.9253C23.3807 12.0016 23.7327 12.1627 24.0352 12.3963C24.3377 12.6299 24.5826 12.9297 24.7511 13.2727C24.9196 13.6157 25.0072 13.9928 25.0072 14.375C25.0072 14.7572 24.9196 15.1343 24.7511 15.4773C24.5826 15.8203 24.3377 16.1201 24.0352 16.3537C23.7327 16.5873 23.3807 16.7484 23.0062 16.8247C22.6317 16.901 22.2447 16.8904 21.875 16.7938V21.25H24.375V19.675C25.0237 19.4433 25.625 19.096 26.15 18.65L27.5 19.4375L29.375 16.1875L28.0063 15.4C28.1437 14.7242 28.15 14.0282 28.025 13.35Z" fill="#F0FF42"/>
<path d="M0.625 28.125C0.625 28.4565 0.756696 28.7745 0.991117 29.0089C1.22554 29.2433 1.54348 29.375 1.875 29.375H2.5V26.875H1.875C1.54348 26.875 1.22554 27.0067 0.991117 27.2411C0.756696 27.4755 0.625 27.7935 0.625 28.125Z" fill="#F0FF42"/>
<path d="M3.75 26.875V29.375H18.125L20.625 28.125L18.125 26.875H3.75Z" fill="#F0FF42"/>
</g>
<defs>
<clipPath id="clip0_271_1377">
<rect width="30" height="30" fill="white"/>
</clipPath>
</defs>
</svg>
