<svg width="30" height="30" viewBox="0 0 30 30" fill="none" xmlns="http://www.w3.org/2000/svg">
<g clip-path="url(#clip0_268_960)">
<path d="M29.1211 11.7773H27.1806C26.8933 10.6893 26.4606 9.64828 25.8885 8.66895L27.2639 7.29363C27.4287 7.12881 27.5214 6.90527 27.5214 6.67213C27.5214 6.43898 27.4287 6.21551 27.2639 6.05068L23.9494 2.73615C23.6062 2.39297 23.0497 2.39291 22.7064 2.73615L21.331 4.11152C20.3517 3.53947 19.3107 3.10676 18.2227 2.81947V0.878906C18.2227 0.393516 17.8291 0 17.3438 0H12.6562C12.1709 0 11.7773 0.393516 11.7773 0.878906V2.81947C10.6893 3.10676 9.64834 3.53947 8.669 4.11152L7.29363 2.73615C6.95045 2.39297 6.39393 2.39291 6.05068 2.73615L2.73615 6.05068C2.57133 6.21551 2.47869 6.43904 2.47869 6.67213C2.47869 6.90521 2.57133 7.12875 2.73615 7.29363L4.11152 8.66895C3.53941 9.64834 3.10676 10.6893 2.81941 11.7773H0.878906C0.393516 11.7773 0 12.1709 0 12.6562V17.3438C0 17.8291 0.393516 18.2227 0.878906 18.2227H2.81941C3.1067 19.3107 3.53941 20.3517 4.11146 21.331L2.73609 22.7063C2.57127 22.8711 2.47863 23.0947 2.47863 23.3278C2.47863 23.5609 2.57121 23.7844 2.73609 23.9493L6.05062 27.2638C6.21545 27.4287 6.43898 27.5213 6.67207 27.5213C6.90516 27.5213 7.12869 27.4287 7.29352 27.2638L8.66889 25.8885C9.64822 26.4605 10.6891 26.8932 11.7772 27.1805V29.1211C11.7772 29.6065 12.1707 30 12.6561 30H17.3436C17.829 30 18.2225 29.6065 18.2225 29.1211V27.1806C19.3106 26.8933 20.3515 26.4606 21.3309 25.8885L22.7062 27.2639C22.8711 27.4287 23.0946 27.5214 23.3277 27.5214C23.5608 27.5214 23.7843 27.4287 23.9491 27.2639L27.2637 23.9493C27.4285 23.7845 27.5211 23.561 27.5211 23.3279C27.5211 23.0947 27.4285 22.8713 27.2637 22.7064L25.8883 21.3311C26.4604 20.3517 26.893 19.3108 27.1804 18.2227H29.1211C29.6065 18.2227 30 17.8292 30 17.3438V12.6563C30 12.1709 29.6065 11.7773 29.1211 11.7773ZM15 23.2031C10.4767 23.2031 6.79688 19.5232 6.79688 15C6.79688 10.4768 10.4768 6.79688 15 6.79688C19.5232 6.79688 23.2031 10.4768 23.2031 15C23.2031 19.5232 19.5233 23.2031 15 23.2031Z" fill="#F0FF42"/>
<path d="M18.5156 10.6055H15.8789V12.3633C15.8789 12.8487 15.4854 13.2422 15 13.2422C14.5146 13.2422 14.1211 12.8487 14.1211 12.3633V10.6055H11.4844C10.999 10.6055 10.6055 10.999 10.6055 11.4844V18.5156C10.6055 19.001 10.999 19.3945 11.4844 19.3945H18.5156C19.001 19.3945 19.3945 19.001 19.3945 18.5156V11.4844C19.3945 10.999 19.001 10.6055 18.5156 10.6055Z" fill="#F0FF42"/>
</g>
<defs>
<clipPath id="clip0_268_960">
<rect width="30" height="30" fill="white"/>
</clipPath>
</defs>
</svg>
