<svg width="30" height="30" viewBox="0 0 30 30" fill="none" xmlns="http://www.w3.org/2000/svg">
<g clip-path="url(#clip0_277_1583)">
<path fill-rule="evenodd" clip-rule="evenodd" d="M24.7279 13.8427C26.4261 15.7245 27.6922 17.3572 28.526 18.8211C31.5794 24.1825 27.2356 29.6279 21.4182 29.5299C15.6009 29.6279 11.2571 24.1825 14.3105 18.8211C15.1443 17.3572 16.4104 15.7245 18.1086 13.8427C18.3112 13.9069 18.5269 13.9416 18.7503 13.9416H24.0861C24.3096 13.9416 24.5252 13.9069 24.7279 13.8427ZM3.13277 0.468811C1.66752 0.468811 0.46875 1.66764 0.46875 3.13283V22.6081C0.46875 24.0734 1.66752 25.2721 3.13277 25.2721H12.943C11.9842 22.9811 12.2743 20.5022 13.496 18.3572C13.7455 17.919 14.0193 17.4848 14.3111 17.0558C14.1423 16.9465 14.0302 16.7566 14.0302 16.5413V15.7451C14.0302 15.4078 14.3053 15.1327 14.6426 15.1327H15.7533C16.2498 14.5224 16.7664 13.9284 17.2833 13.355C17.1307 13.2102 16.9995 13.0431 16.8947 12.859H14.6426C14.3053 12.859 14.0302 12.5839 14.0302 12.2466V11.4504C14.0302 11.1131 14.3053 10.838 14.6426 10.838H16.851C17.0413 10.4674 17.337 10.1592 17.6981 9.95326L17.0616 9.31688C16.6743 8.92951 16.4648 8.43 16.4331 7.92129H4.02076C3.68344 7.92129 3.40834 7.64619 3.40834 7.30887V4.90506C3.40834 4.56774 3.68344 4.29264 4.02076 4.29264H17.4942C17.8315 4.29264 18.1066 4.56774 18.1066 4.90506V5.67574C18.5388 5.5766 18.9985 5.60959 19.4186 5.78192C19.7027 5.10199 20.3188 4.60793 21.0463 4.48061V3.13283C21.0463 1.66764 19.8475 0.468811 18.3823 0.468811H3.13277ZM18.7504 13.0041C18.0925 13.0041 17.5544 12.4659 17.5544 11.8081C17.5544 11.1503 18.0926 10.6122 18.7504 10.6122H24.0861C24.744 10.6122 25.2821 11.1503 25.2821 11.8082C25.2821 12.4659 24.744 13.0041 24.0861 13.0041H18.7504ZM4.58344 10.838H6.8724C7.20973 10.838 7.48482 11.1131 7.48482 11.4504V12.2466C7.48482 12.5839 7.20973 12.859 6.8724 12.859H4.58344C4.24611 12.859 3.97102 12.5839 3.97102 12.2466V11.4504C3.97102 11.1131 4.24611 10.838 4.58344 10.838ZM9.61301 19.4273C9.27568 19.4273 9.00058 19.7024 9.00058 20.0397V20.8359C9.00058 21.1732 9.27568 21.4483 9.61301 21.4483H11.902C12.2393 21.4483 12.5144 21.1732 12.5144 20.8359V20.0397C12.5144 19.7024 12.2393 19.4273 11.902 19.4273H9.61301ZM4.58344 19.4273H6.8724C7.20973 19.4273 7.48482 19.7024 7.48482 20.0397V20.8359C7.48482 21.1732 7.20973 21.4483 6.8724 21.4483H4.58344C4.24611 21.4483 3.97102 21.1732 3.97102 20.8359V20.0397C3.97102 19.7024 4.24611 19.4273 4.58344 19.4273ZM9.61301 15.1326C9.27568 15.1326 9.00058 15.4077 9.00058 15.745V16.5412C9.00058 16.8785 9.27568 17.1536 9.61301 17.1536H11.902C12.2393 17.1536 12.5144 16.8785 12.5144 16.5412V15.745C12.5144 15.4077 12.2393 15.1326 11.902 15.1326H9.61301ZM4.58344 15.1326H6.8724C7.20973 15.1326 7.48482 15.4077 7.48482 15.745V16.5412C7.48482 16.8785 7.20973 17.1536 6.8724 17.1536H4.58344C4.24611 17.1536 3.97102 16.8785 3.97102 16.5412V15.745C3.97102 15.4078 4.24611 15.1326 4.58344 15.1326ZM9.61301 10.838H11.902C12.2393 10.838 12.5144 11.1131 12.5144 11.4504V12.2466C12.5144 12.5839 12.2393 12.859 11.902 12.859H9.61301C9.27568 12.859 9.00058 12.5839 9.00058 12.2466V11.4504C9.00058 11.1131 9.27568 10.838 9.61301 10.838ZM21.3569 23.9055C20.9975 23.8961 20.6486 23.7988 20.3704 23.6135C20.1187 23.4459 19.9264 23.2007 19.8461 22.8785C19.7745 22.5877 19.4808 22.4099 19.19 22.4815C18.8992 22.553 18.7214 22.8468 18.7929 23.1376C18.9446 23.7461 19.3034 24.2061 19.7717 24.518C20.0916 24.7311 20.463 24.8719 20.852 24.9405V25.3624C20.852 25.6626 21.0954 25.906 21.3956 25.906C21.6958 25.906 21.9391 25.6627 21.9391 25.3624V24.9509C22.4119 24.8788 22.8935 24.7062 23.2717 24.4194C23.7261 24.0745 24.0284 23.5808 24.0127 22.9181C24.0108 22.8422 24.0065 22.7755 23.9996 22.7185C23.9115 21.9924 23.5187 21.5198 22.9978 21.2053C22.5403 20.929 21.9916 20.7915 21.4886 20.7089C21.1257 20.6493 20.7436 20.5485 20.4637 20.3658C20.2469 20.2243 20.0914 20.0193 20.0768 19.7197C20.061 19.3954 20.2026 19.1338 20.4257 18.9524C20.6004 18.8104 20.8233 18.7117 21.0649 18.663C21.1621 18.6435 21.2622 18.6322 21.3632 18.6295C21.3739 18.6302 21.3847 18.6305 21.3956 18.6305C21.4086 18.6305 21.4216 18.6301 21.4345 18.6291C21.5681 18.6311 21.7027 18.6482 21.8341 18.6815C22.2381 18.7839 22.606 19.0502 22.7998 19.5117C22.9158 19.7884 23.2344 19.9186 23.511 19.8025C23.7878 19.6864 23.918 19.3679 23.8019 19.0913C23.4608 18.2788 22.8113 17.8093 22.0973 17.6284C22.045 17.6151 21.9922 17.6034 21.9391 17.5934V17.1722C21.9391 16.8721 21.6958 16.6287 21.3956 16.6287C21.0954 16.6287 20.852 16.8721 20.852 17.1722V17.6016C20.4402 17.6846 20.0535 17.8584 19.742 18.1117C19.2633 18.5009 18.9597 19.0661 18.9939 19.7707C19.0283 20.4787 19.3816 20.9536 19.8735 21.2747C20.3023 21.5546 20.8288 21.6994 21.3145 21.7791C21.7045 21.8432 22.1209 21.9444 22.4372 22.1354C22.6903 22.2881 22.8804 22.5114 22.921 22.846C22.9264 22.8906 22.9293 22.923 22.9298 22.9437C22.9361 23.2097 22.8088 23.4124 22.6177 23.5574C22.3785 23.7389 22.0425 23.846 21.7065 23.8867C21.6151 23.8978 21.5351 23.9041 21.4674 23.9057L21.4415 23.9062C21.4263 23.9049 21.411 23.9043 21.3956 23.9043C21.3826 23.9041 21.3697 23.9046 21.3569 23.9055ZM18.7453 9.67471L17.7245 8.65395C17.2465 8.17594 17.2465 7.39377 17.7245 6.91582C18.1311 6.50924 18.7747 6.44057 19.2584 6.75106C19.4381 6.86637 19.6445 6.88477 19.8417 6.80315C20.0388 6.72147 20.1717 6.56262 20.2172 6.35397C20.3377 5.80225 20.8317 5.38582 21.4182 5.38571C21.9942 5.38571 22.4965 5.7917 22.6193 6.35397C22.6648 6.56262 22.7977 6.72147 22.9949 6.80315C23.1922 6.88489 23.3985 6.86637 23.5781 6.75106C24.0533 6.44602 24.6972 6.50104 25.1119 6.91571V6.91582C25.5899 7.39383 25.5899 8.176 25.1119 8.65395L24.0912 9.67471L24.0861 9.67465H18.7503L18.7453 9.67471Z" fill="#F0FF42"/>
</g>
<defs>
<clipPath id="clip0_277_1583">
<rect width="30" height="30" fill="white"/>
</clipPath>
</defs>
</svg>
