<svg width="30" height="30" viewBox="0 0 30 30" fill="none" xmlns="http://www.w3.org/2000/svg">
<path d="M3.57422 0.878906V23.8477C3.57422 24.3335 3.96732 24.7266 4.45312 24.7266H20.2734C20.7592 24.7266 21.1523 24.3335 21.1523 23.8477V0.878906C21.1523 0.393105 20.7592 0 20.2734 0H4.45312C3.96732 0 3.57422 0.393105 3.57422 0.878906ZM17.6367 20.2734H14.1211C13.6353 20.2734 13.2422 19.8803 13.2422 19.3945C13.2422 18.9087 13.6353 18.5156 14.1211 18.5156H17.6367C18.1225 18.5156 18.5156 18.9087 18.5156 19.3945C18.5156 19.8803 18.1225 20.2734 17.6367 20.2734ZM7.08984 4.45312H12.3633C12.8491 4.45312 13.2422 4.84623 13.2422 5.33203C13.2422 5.81783 12.8491 6.21094 12.3633 6.21094H7.08984C6.60404 6.21094 6.21094 5.81783 6.21094 5.33203C6.21094 4.84623 6.60404 4.45312 7.08984 4.45312ZM7.08984 7.96875H17.6367C18.1225 7.96875 18.5156 8.36186 18.5156 8.84766C18.5156 9.33346 18.1225 9.72656 17.6367 9.72656H7.08984C6.60404 9.72656 6.21094 9.33346 6.21094 8.84766C6.21094 8.36186 6.60404 7.96875 7.08984 7.96875ZM7.08984 11.4844H17.6367C18.1225 11.4844 18.5156 11.8775 18.5156 12.3633C18.5156 12.8491 18.1225 13.2422 17.6367 13.2422H7.08984C6.60404 13.2422 6.21094 12.8491 6.21094 12.3633C6.21094 11.8775 6.60404 11.4844 7.08984 11.4844ZM7.08984 15H17.6367C18.1225 15 18.5156 15.3931 18.5156 15.8789C18.5156 16.3647 18.1225 16.7578 17.6367 16.7578H7.08984C6.60404 16.7578 6.21094 16.3647 6.21094 15.8789C6.21094 15.3931 6.60404 15 7.08984 15Z" fill="#F0FF42"/>
<path d="M9.72656 30H25.5469C26.0327 30 26.4258 29.6069 26.4258 29.1211V6.21094C26.4258 5.72514 26.0327 5.33203 25.5469 5.33203H22.9102V23.8477C22.9102 25.3016 21.7274 26.4844 20.2734 26.4844H8.84766V29.1211C8.84766 29.6069 9.24076 30 9.72656 30Z" fill="#F0FF42"/>
</svg>
