<svg width="30" height="30" viewBox="0 0 30 30" fill="none" xmlns="http://www.w3.org/2000/svg">
<g clip-path="url(#clip0_268_789)">
<path d="M29.1355 11.2617C29.0452 11.2834 28.9671 11.3399 28.9184 11.419C28.8696 11.498 28.8542 11.5931 28.8753 11.6836C29.1316 12.7712 29.2613 13.8849 29.262 15.0023C29.2575 18.7834 27.7535 22.4083 25.0799 25.0819C22.4062 27.7555 18.7814 29.2595 15.0003 29.264C11.8948 29.2749 8.87268 28.2598 6.40343 26.3765C6.73497 25.8822 6.86744 25.2808 6.77428 24.6929C6.68113 24.105 6.36924 23.574 5.90112 23.2064C5.433 22.8388 4.84323 22.6616 4.25001 22.7105C3.65678 22.7593 3.10394 23.0306 2.70227 23.4698C2.30059 23.9091 2.07977 24.4839 2.08405 25.0791C2.08832 25.6744 2.31739 26.246 2.72533 26.6794C3.13328 27.1129 3.68997 27.3761 4.28383 27.4165C4.87769 27.4568 5.46485 27.2712 5.92764 26.8968C8.52754 28.8984 11.7192 29.9785 15.0003 29.9671C17.2607 29.9647 19.4912 29.4508 21.5247 28.464C23.5583 27.4771 25.3422 26.0429 26.7428 24.2687C28.1433 22.4945 29.1243 20.4264 29.6121 18.2193C30.1 16.0122 30.082 13.7234 29.5597 11.5242C29.5492 11.479 29.5299 11.4364 29.5029 11.3987C29.4758 11.361 29.4416 11.329 29.4022 11.3047C29.3628 11.2803 29.3189 11.2639 29.2731 11.2565C29.2273 11.2491 29.1806 11.2509 29.1355 11.2617Z" fill="#F0FF42"/>
<path d="M0.738295 15.0023C0.738449 12.4655 1.41522 9.97462 2.69882 7.78649C3.98243 5.59836 5.82642 3.79219 8.04068 2.55419C10.2549 1.3162 12.7593 0.691186 15.2956 0.743594C17.8319 0.796003 20.3083 1.52394 22.4695 2.85234C22.2465 3.32959 22.2108 3.87322 22.3695 4.37554C22.5283 4.87787 22.8699 5.30225 23.3267 5.56465C23.7835 5.82705 24.3222 5.90832 24.8361 5.79236C25.35 5.6764 25.8016 5.37168 26.1014 4.93854C26.4013 4.5054 26.5275 3.97544 26.4552 3.45362C26.3828 2.9318 26.1172 2.45619 25.7108 2.12098C25.3044 1.78576 24.7869 1.61541 24.2608 1.64364C23.7348 1.67188 23.2385 1.89665 22.8703 2.27344C20.6034 0.872037 18.0033 0.101431 15.3388 0.0412606C12.6744 -0.0189102 10.0422 0.633537 7.71425 1.93117C5.38634 3.22881 3.44719 5.12456 2.09719 7.4225C0.74719 9.72044 0.0353277 12.3372 0.0351704 15.0023C0.03391 15.9159 0.117076 16.8276 0.283608 17.7258C0.297902 17.8067 0.340296 17.88 0.403321 17.9327C0.466347 17.9855 0.545961 18.0143 0.628139 18.0141C0.649427 18.014 0.670648 18.0117 0.69142 18.007C0.783065 17.9905 0.864399 17.9382 0.917568 17.8618C0.970737 17.7853 0.991397 17.6909 0.975014 17.5992C0.817026 16.7426 0.737789 15.8734 0.738295 15.0023Z" fill="#F0FF42"/>
<path d="M12.8906 12.6797V12.8906H17.1094V12.6797C17.0766 9.82969 12.9234 9.82969 12.8906 12.6797Z" fill="#F0FF42"/>
<path d="M24.8312 7.69687C20.875 7.73672 17.0687 5.29219 15.6133 4.2375C15.4346 4.10839 15.2197 4.03889 14.9992 4.03889C14.7787 4.03889 14.5639 4.10839 14.3852 4.2375C12.9297 5.29219 9.11406 7.72734 5.16719 7.69687C5.02702 7.69548 4.88796 7.72183 4.75801 7.7744C4.62806 7.82697 4.5098 7.90473 4.41003 8.0032C4.31026 8.10166 4.23095 8.21889 4.17667 8.34813C4.12239 8.47737 4.09421 8.61607 4.09375 8.75625C4.09609 14.168 5.17891 21.9094 14.5234 26.6391C14.6708 26.7142 14.8338 26.7533 14.9992 26.7533C15.1646 26.7533 15.3276 26.7142 15.475 26.6391C24.8195 21.9094 25.9023 14.168 25.9047 8.75625C25.9026 8.4735 25.7884 8.20313 25.5871 8.00451C25.3858 7.80589 25.114 7.69525 24.8312 7.69687ZM18.8664 18.3984C18.8664 18.8646 18.6812 19.3117 18.3516 19.6414C18.0219 19.9711 17.5748 20.1562 17.1086 20.1562H12.8898C12.4236 20.1562 11.9765 19.9711 11.6469 19.6414C11.3172 19.3117 11.132 18.8646 11.132 18.3984V14.6484C11.1322 14.3066 11.2321 13.9722 11.4194 13.6862C11.6067 13.4002 11.8734 13.175 12.1867 13.0383V12.675C12.2289 8.91328 17.7695 8.91328 17.8117 12.675V13.0383C18.1251 13.175 18.3917 13.4002 18.579 13.6862C18.7664 13.9722 18.8662 14.3066 18.8664 14.6484V18.3984Z" fill="#F0FF42"/>
<path d="M15.5742 16.1198C15.569 16.0884 15.5705 16.0561 15.5785 16.0253C15.5866 15.9944 15.6011 15.9656 15.6211 15.9408C15.6996 15.8272 15.7455 15.6944 15.754 15.5566C15.7624 15.4188 15.733 15.2814 15.6689 15.1591C15.6048 15.0369 15.5085 14.9345 15.3904 14.8631C15.2722 14.7916 15.1368 14.7539 14.9988 14.7539C14.8608 14.7539 14.7254 14.7916 14.6073 14.8631C14.4892 14.9345 14.3929 15.0369 14.3288 15.1591C14.2647 15.2814 14.2352 15.4188 14.2437 15.5566C14.2521 15.6944 14.298 15.8272 14.3765 15.9408C14.3964 15.9654 14.4109 15.9939 14.4189 16.0245C14.427 16.055 14.4285 16.087 14.4234 16.1182C14.3683 16.3926 14.2125 17.1773 14.1026 17.722C14.0892 17.7899 14.0911 17.86 14.108 17.9271C14.1249 17.9943 14.1565 18.0568 14.2005 18.1103C14.2445 18.1638 14.2998 18.2068 14.3624 18.2364C14.425 18.2659 14.4934 18.2812 14.5626 18.2812H15.4345C15.5039 18.2813 15.5724 18.2659 15.6351 18.2362C15.6978 18.2066 15.7531 18.1634 15.7971 18.1098C15.8411 18.0561 15.8727 17.9934 15.8895 17.9261C15.9063 17.8588 15.908 17.7886 15.8944 17.7206L15.5742 16.1198Z" fill="#F0FF42"/>
</g>
<defs>
<clipPath id="clip0_268_789">
<rect width="30" height="30" fill="white"/>
</clipPath>
</defs>
</svg>
