<svg width="30" height="30" viewBox="0 0 30 30" fill="none" xmlns="http://www.w3.org/2000/svg">
<g clip-path="url(#clip0_277_1550)">
<path d="M1.96955 10.9916C2.12724 11.5323 2.34608 12.0536 2.62285 12.5428L1.83438 13.5373C1.57692 13.8623 1.60588 14.3257 1.89553 14.6186L3.25363 15.9767C3.5465 16.2696 4.00993 16.2953 4.33497 16.0378L5.32298 15.2558C5.83147 15.5487 6.37213 15.7771 6.93533 15.9381L7.08337 17.2093C7.13165 17.6212 7.47922 17.9302 7.89116 17.9302H9.81246C10.2244 17.9302 10.572 17.6212 10.6202 17.2093L10.7618 15.9831C11.3669 15.8254 11.9462 15.5905 12.4901 15.2848L13.4459 16.041C13.7709 16.2985 14.2344 16.2695 14.5272 15.9799L15.8853 14.6218C16.1782 14.3289 16.2039 13.8655 15.9465 13.5405L15.2031 12.5975C15.512 12.0632 15.7534 11.4936 15.9143 10.8983L17.06 10.7663C17.472 10.718 17.7809 10.3705 17.7809 9.95852V8.03722C17.7809 7.62528 17.4719 7.27771 17.06 7.22943L15.9304 7.09748C15.7759 6.50854 15.5442 5.94534 15.2481 5.41755L15.9433 4.53896C16.2008 4.21392 16.1718 3.75049 15.8821 3.45762L14.5273 2.10273C14.2344 1.80987 13.771 1.78413 13.4459 2.04159L12.5931 2.71742C12.0395 2.39238 11.4473 2.14457 10.8262 1.97722L10.6975 0.873357C10.6492 0.461419 10.3017 0.152466 9.88973 0.152466H7.96843C7.55649 0.152466 7.20892 0.461419 7.16064 0.873357L7.03191 1.97722C6.39469 2.14779 5.78644 2.40525 5.22003 2.74317L4.335 2.04159C4.00996 1.78413 3.54653 1.81309 3.25367 2.10273L1.89556 3.46084C1.6027 3.75371 1.57695 4.21714 1.83441 4.54218L2.57461 5.4787C2.27853 6.01293 2.05325 6.58256 1.90521 7.17472L0.720892 7.30989C0.308954 7.35816 0 7.70574 0 8.11767V10.039C0 10.4509 0.308954 10.7985 0.720892 10.8468L1.96955 10.9916ZM8.93066 5.79412C10.6814 5.79412 12.1071 7.21981 12.1071 8.97055C12.1071 10.7213 10.6814 12.147 8.93066 12.147C7.17995 12.147 5.75423 10.7213 5.75423 8.97055C5.75423 7.21981 7.17992 5.79412 8.93066 5.79412Z" fill="#F0FF42"/>
<path d="M27.925 11.4647L26.9112 10.6086C26.5991 10.3447 26.1388 10.3576 25.8428 10.6376L25.2828 11.1622C24.8097 10.9337 24.3077 10.7728 23.7895 10.6794L23.6319 9.90706C23.5514 9.50799 23.1813 9.23122 22.7758 9.26341L21.453 9.37604C21.0475 9.41145 20.7289 9.74293 20.7161 10.1516L20.6904 10.9369C20.1818 11.1203 19.7023 11.3714 19.2646 11.6868L18.5953 11.2426C18.2541 11.0174 17.8003 11.0817 17.5365 11.3939L16.6804 12.4141C16.4165 12.7263 16.4293 13.1865 16.7093 13.4826L17.2951 14.1069C17.0923 14.5639 16.9474 15.0434 16.8638 15.5358L16.0271 15.7063C15.628 15.7868 15.3512 16.1569 15.3834 16.5624L15.496 17.8851C15.5314 18.2906 15.8629 18.6093 16.2716 18.6221L17.176 18.6511C17.3402 19.0823 17.5558 19.4911 17.8164 19.874L17.3112 20.6367C17.0859 20.9779 17.1503 21.4316 17.4624 21.6955L18.4762 22.5516C18.7884 22.8155 19.2485 22.8026 19.5447 22.5226L20.2076 21.9015C20.6421 22.1043 21.099 22.2555 21.5689 22.3456L21.7524 23.2532C21.8328 23.6522 22.2029 23.929 22.6084 23.8968L23.9311 23.7842C24.3366 23.7488 24.6553 23.4173 24.6681 23.0086L24.6971 22.1203C25.1798 21.9497 25.6368 21.718 26.0584 21.4316L26.789 21.9144C27.1301 22.1397 27.5838 22.0753 27.8478 21.7631L28.7038 20.7494C28.9677 20.4372 28.9548 19.977 28.6749 19.6809L28.0859 19.0566C28.3016 18.5996 28.4593 18.1169 28.5493 17.6212L29.3539 17.4571C29.753 17.3766 30.0297 17.0065 29.9975 16.601L29.8849 15.2783C29.8495 14.8728 29.518 14.5542 29.1093 14.5413L28.3015 14.5156C28.1341 14.0457 27.9089 13.6016 27.6289 13.1896L28.0698 12.5267C28.3015 12.1856 28.2372 11.7286 27.925 11.4647ZM22.9399 19.1113C21.511 19.2336 20.2494 18.1683 20.1303 16.7394C20.008 15.3105 21.0733 14.0489 22.5022 13.9299C23.9311 13.8076 25.1927 14.8728 25.3118 16.3017C25.4341 17.7307 24.3688 18.9922 22.9399 19.1113Z" fill="#F0FF42"/>
<path d="M6.59783 22.6707C6.19233 22.7126 5.88016 23.0537 5.87694 23.4624L5.86729 24.2766C5.86085 24.6853 6.16337 25.0329 6.56887 25.0844L7.16747 25.1617C7.26723 25.5253 7.40884 25.8729 7.59228 26.2012L7.20609 26.6775C6.94863 26.9961 6.96793 27.4531 7.25436 27.746L7.82399 28.3285C8.11042 28.6213 8.56741 28.6535 8.89246 28.4025L9.37195 28.0324C9.70987 28.2319 10.0671 28.3896 10.4404 28.499L10.5048 29.1169C10.5466 29.5224 10.8878 29.8346 11.2965 29.8378L12.1107 29.8475C12.5194 29.8539 12.867 29.5514 12.9185 29.1459L12.9925 28.5602C13.3981 28.4604 13.7843 28.3091 14.1511 28.1096L14.6017 28.4733C14.9203 28.7307 15.3773 28.7114 15.6702 28.425L16.2527 27.8554C16.5455 27.569 16.5777 27.112 16.3267 26.7869L15.9823 26.3395C16.1947 25.9855 16.3589 25.609 16.4715 25.2131L17.0057 25.1584C17.4112 25.1166 17.7234 24.7755 17.7266 24.3667L17.7363 23.5525C17.7427 23.1438 17.4402 22.7962 17.0347 22.7447L16.5133 22.6771C16.4135 22.2845 16.2655 21.9047 16.0724 21.5507L16.3975 21.1517C16.6549 20.8331 16.6356 20.3761 16.3492 20.0832L15.7796 19.5007C15.4932 19.2078 15.0361 19.1756 14.7111 19.4267L14.3217 19.726C13.9548 19.5039 13.5622 19.3333 13.1503 19.2175L13.0987 18.7122C13.0569 18.3067 12.7158 17.9945 12.307 17.9913L11.4928 17.9817C11.0841 17.9752 10.7365 18.2777 10.685 18.6832L10.6206 19.1853C10.1959 19.2947 9.78714 19.4621 9.40738 19.6809L9.0051 19.3526C8.68649 19.0952 8.22946 19.1145 7.9366 19.4009L7.35088 19.9738C7.05801 20.2602 7.02583 20.7172 7.27686 21.0422L7.62121 21.4864C7.42168 21.8404 7.26398 22.2169 7.161 22.6128L6.59783 22.6707ZM11.8533 21.7503C13.0215 21.7631 13.958 22.7254 13.9451 23.8937C13.9323 25.0619 12.97 25.9984 11.8017 25.9855C10.6335 25.9727 9.69703 25.0104 9.70987 23.8421C9.72277 22.6739 10.685 21.7374 11.8533 21.7503Z" fill="#F0FF42"/>
</g>
<defs>
<clipPath id="clip0_277_1550">
<rect width="30" height="30" fill="white"/>
</clipPath>
</defs>
</svg>
