<svg width="30" height="30" viewBox="0 0 30 30" fill="none" xmlns="http://www.w3.org/2000/svg">
<g clip-path="url(#clip0_268_783)">
<path d="M29.2348 11.7358L27.0476 11.2984C26.8069 10.5008 26.488 9.73061 26.0951 8.99818L27.3322 7.14258C27.5647 6.79394 27.5187 6.32977 27.2224 6.03357L23.9079 2.71898C23.6116 2.42273 23.1475 2.3768 22.7989 2.60912L20.9432 3.84621C20.2108 3.4534 19.4406 3.13453 18.643 2.89383L18.2055 0.706523C18.1235 0.295723 17.7627 0 17.3438 0H12.6562C12.2373 0 11.8765 0.295723 11.7944 0.706523L11.357 2.89383C10.5593 3.13453 9.78914 3.45346 9.05678 3.84621L7.20106 2.60912C6.85254 2.3768 6.3883 2.42273 6.09205 2.71898L2.77752 6.03357C2.48121 6.32982 2.43527 6.794 2.66771 7.14258L3.9048 8.99818C3.51193 9.73061 3.19307 10.5008 2.95236 11.2984L0.765117 11.7358C0.354316 11.8179 0.0585938 12.1787 0.0585938 12.5977V17.2852C0.0585938 17.7041 0.354316 18.0649 0.765176 18.147L2.95242 18.5844C3.19307 19.382 3.51199 20.1521 3.90486 20.8846L2.66777 22.7402C2.43533 23.0888 2.48133 23.553 2.77758 23.8492L6.09211 27.1638C6.38842 27.4601 6.85254 27.506 7.20111 27.2736L9.01881 26.0619V20.5444C7.64232 19.0793 6.79688 17.1108 6.79688 14.9414C6.79688 10.4109 10.4695 6.73828 15 6.73828C19.5305 6.73828 23.2031 10.4109 23.2031 14.9414C23.2031 17.1108 22.3577 19.0793 20.9812 20.5444V26.0619L22.7989 27.2736C22.9476 27.3728 23.1173 27.4213 23.2861 27.4213C23.5129 27.4213 23.738 27.3337 23.9078 27.1638L27.2224 23.8493C27.5186 23.553 27.5646 23.0889 27.3322 22.7403L26.0951 20.8846C26.4879 20.1522 26.8068 19.382 27.0475 18.5845L29.2348 18.147C29.6457 18.0649 29.9414 17.7041 29.9414 17.2852V12.5977C29.9414 12.1787 29.6457 11.8179 29.2348 11.7358Z" fill="#F0FF42"/>
<path d="M17.7843 10.1256C17.342 9.86941 16.7808 10.1413 16.7077 10.6472L16.1719 14.3555H13.8281L13.2923 10.6472C13.2192 10.1413 12.6581 9.86941 12.2157 10.1256C10.4996 11.1197 9.43359 12.965 9.43359 14.9414C9.43359 17.0831 10.633 18.999 12.5637 19.9414L12.6562 19.9866V29.1211C12.6562 29.6065 13.0498 30 13.5352 30H16.4648C16.9502 30 17.3438 29.6065 17.3438 29.1211V19.9866L17.4363 19.9414C19.367 18.999 20.5664 17.0831 20.5664 14.9414C20.5664 12.965 19.5004 11.1197 17.7843 10.1256Z" fill="#F0FF42"/>
</g>
<defs>
<clipPath id="clip0_268_783">
<rect width="30" height="30" fill="white"/>
</clipPath>
</defs>
</svg>
