<svg width="30" height="30" viewBox="0 0 30 30" fill="none" xmlns="http://www.w3.org/2000/svg">
<g clip-path="url(#clip0_271_1246)">
<path d="M29.7391 6.73181C29.5056 6.43277 29.1473 6.258 28.7679 6.258H5.31117L4.96249 2.37363C4.90546 1.73841 4.37309 1.25168 3.73535 1.25168H1.23207C0.551616 1.25168 0 1.80329 0 2.48375C0 3.16421 0.551616 3.71582 1.23207 3.71582H2.60894L3.95941 18.7611C3.9597 18.7788 3.95882 18.7963 3.95982 18.8141C3.96258 18.8614 3.96874 18.9076 3.9766 18.9531L4.026 19.5032C4.02694 19.5136 4.02799 19.524 4.02923 19.5343C4.17895 20.8315 4.84186 21.9554 5.80047 22.7148C5.30377 23.3491 5.00655 24.1467 5.00655 25.013C5.00655 27.0727 6.68223 28.7483 8.74184 28.7483C10.8015 28.7483 12.4772 27.0727 12.4772 25.013C12.4772 24.5668 12.3983 24.1388 12.2542 23.7418H18.9975C18.8533 24.1388 18.7745 24.5668 18.7745 25.013C18.7745 27.0727 20.4502 28.7483 22.5098 28.7483C24.5695 28.7483 26.2452 27.0727 26.2452 25.013C26.2452 22.9533 24.5695 21.2776 22.5098 21.2776H8.75017C7.81427 21.2776 6.99869 20.713 6.64667 19.8903L26.3368 18.7331C26.8744 18.7016 27.3292 18.3244 27.4598 17.802L29.9633 7.78882C30.0552 7.42084 29.9725 7.03091 29.7391 6.73181Z" fill="#F0FF42"/>
</g>
<defs>
<clipPath id="clip0_271_1246">
<rect width="30" height="30" fill="white"/>
</clipPath>
</defs>
</svg>
