<svg width="20" height="20" viewBox="0 0 20 20" fill="none" xmlns="http://www.w3.org/2000/svg">
<path fill-rule="evenodd" clip-rule="evenodd" d="M1.04297 9.99935C1.04297 5.05185 5.0538 1.04102 10.0013 1.04102C14.9488 1.04102 18.9596 5.05185 18.9596 9.99935C18.9596 14.9468 14.9488 18.9577 10.0013 18.9577C5.0538 18.9577 1.04297 14.9468 1.04297 9.99935ZM10.0013 2.29102C7.95692 2.29102 5.99628 3.10314 4.55069 4.54873C3.10509 5.99433 2.29297 7.95497 2.29297 9.99935C2.29297 12.0437 3.10509 14.0044 4.55069 15.45C5.99628 16.8956 7.95692 17.7077 10.0013 17.7077C12.0457 17.7077 14.0063 16.8956 15.4519 15.45C16.8975 14.0044 17.7096 12.0437 17.7096 9.99935C17.7096 7.95497 16.8975 5.99433 15.4519 4.54873C14.0063 3.10314 12.0457 2.29102 10.0013 2.29102Z" fill="white"/>
<path fill-rule="evenodd" clip-rule="evenodd" d="M10.2396 7.29102C8.57047 7.29102 7.29297 8.54352 7.29297 9.99935C7.29297 11.4552 8.57047 12.7077 10.2396 12.7077C10.6655 12.7077 11.0688 12.6244 11.4313 12.4769C11.5073 12.4458 11.5887 12.4301 11.6708 12.4305C11.7529 12.4309 11.8341 12.4475 11.9097 12.4793C11.9854 12.5111 12.0541 12.5575 12.1118 12.6159C12.1696 12.6742 12.2153 12.7434 12.2463 12.8194C12.2773 12.8954 12.2931 12.9767 12.2927 13.0588C12.2922 13.1409 12.2756 13.2221 12.2438 13.2978C12.212 13.3735 12.1656 13.4421 12.1073 13.4999C12.049 13.5576 11.9798 13.6033 11.9038 13.6344C11.3752 13.8488 10.8101 13.9586 10.2396 13.9577C7.96297 13.9577 6.04297 12.2252 6.04297 9.99935C6.04297 7.77352 7.96297 6.04102 10.2396 6.04102C10.8101 6.04012 11.3752 6.14992 11.9038 6.36435C12.0574 6.4269 12.1799 6.54791 12.2443 6.70075C12.3086 6.85359 12.3097 7.02575 12.2471 7.17935C12.1846 7.33296 12.0636 7.45543 11.9107 7.51981C11.7579 7.5842 11.5857 7.58523 11.4321 7.52269C11.0534 7.36891 10.6484 7.29022 10.2396 7.29102Z" fill="white"/>
</svg>
