<svg width="100" height="100" viewBox="0 0 100 100" fill="none" xmlns="http://www.w3.org/2000/svg">
<g clip-path="url(#clip0_277_1594)">
<path d="M93.5367 66.6397C92.7273 66.6397 92.0719 67.2958 92.0719 68.1046V91.4581H61.8778V63.7352C61.8778 61.85 60.3443 60.3165 58.4598 60.3165H41.5378C39.6534 60.3165 38.1199 61.8507 38.1199 63.7352V91.4581H7.92578V68.1046C7.92578 67.2958 7.27042 66.6397 6.46094 66.6397C5.65146 66.6397 4.99609 67.2958 4.99609 68.1046V92.1417C4.99609 93.38 6.00394 94.3878 7.24219 94.3878H92.7555C93.9937 94.3878 95.0016 93.38 95.0016 92.1417V68.1046C95.0016 67.2958 94.3462 66.6397 93.5367 66.6397ZM41.0496 91.4581V63.7352C41.0496 63.4659 41.2685 63.2462 41.5378 63.2462H58.4598C58.7292 63.2462 58.9481 63.4659 58.9481 63.7352V91.4581H41.0496Z" fill="#333333"/>
<path d="M86.5791 85.6704C88.2988 85.6704 89.698 84.2712 89.698 82.5515V66.5664C89.698 64.8468 88.2988 63.4483 86.5791 63.4483H68.4509C66.7313 63.4483 65.332 64.8468 65.332 66.5664V82.5515C65.332 84.2712 66.7313 85.6704 68.4509 85.6704H86.5791ZM68.2617 82.5515V66.5664C68.2617 66.4627 68.3464 66.378 68.4509 66.378H86.5791C86.6837 66.378 86.7683 66.4627 86.7683 66.5664V82.5515C86.7683 82.6561 86.6837 82.7408 86.5791 82.7408H68.4509C68.3464 82.7408 68.2617 82.6561 68.2617 82.5515Z" fill="#333333"/>
<path d="M31.5479 85.6705C33.2675 85.6705 34.6668 84.2713 34.6668 82.5516V66.5665C34.6668 64.8468 33.2675 63.4484 31.5479 63.4484H13.4197C11.7 63.4484 10.3008 64.8468 10.3008 66.5665V82.5516C10.3008 84.2713 11.7 85.6705 13.4197 85.6705H31.5479ZM13.2305 82.5516V66.5665C13.2305 66.4627 13.3152 66.3781 13.4197 66.3781H31.5479C31.6524 66.3781 31.7371 66.4627 31.7371 66.5665V82.5516C31.7371 82.6561 31.6524 82.7408 31.5479 82.7408H13.4197C13.3152 82.7408 13.2305 82.6561 13.2305 82.5516Z" fill="#333333"/>
<path d="M95.6955 27.2598C95.6955 25.695 96.9688 24.4225 98.5352 24.4225C99.3446 24.4225 100 23.7663 100 22.9576V19.3733C100 18.5646 99.3446 17.9085 98.5352 17.9085H74.3538C73.5443 17.9085 72.8889 18.5646 72.8889 19.3733C72.8889 20.1828 73.5443 20.8382 74.3538 20.8382H97.0703V21.6812C95.0645 22.2076 93.4814 23.79 92.9543 25.795H69.9097V12.7914C69.9097 8.86154 66.7122 5.66406 62.7823 5.66406H37.2185C33.2878 5.66406 30.0911 8.86154 30.0911 12.7914V17.9085H1.46484C0.655365 17.9085 0 18.5646 0 19.3733V22.9576C0 23.7663 0.655365 24.4225 1.46484 24.4225C3.03116 24.4225 4.3045 25.695 4.3045 27.2598C4.3045 27.7885 4.5845 28.2516 5.00412 28.5095V38.5147H2.36816C1.12915 38.5147 0.121307 39.5226 0.121307 40.7608V48.7373C0.121307 49.9756 1.12915 50.9834 2.36816 50.9834H5.00412V62.2559C5.00412 63.0646 5.65948 63.7207 6.46896 63.7207C7.27844 63.7207 7.93381 63.0646 7.93381 62.2559V50.9834H92.1875V62.2581C92.1875 63.0669 92.8429 63.723 93.6523 63.723C94.4611 63.723 95.1172 63.0669 95.1172 62.2581V50.9834H97.7531C98.9922 50.9834 100 49.9756 100 48.7373V40.7608C100 39.5226 98.9922 38.5147 97.7531 38.5147H95.1172V28.4264C95.4681 28.1586 95.6955 27.7359 95.6955 27.2598ZM33.02 12.7914C33.02 10.4767 34.9037 8.59375 37.2177 8.59375H62.7815C65.0963 8.59375 66.9792 10.4767 66.9792 12.7914V28.7743C66.9792 31.089 65.0963 32.972 62.7815 32.972H37.2185C34.9037 32.972 33.0208 31.089 33.0208 28.7743V12.7914H33.02ZM97.0703 48.0537H3.05099V41.4444H97.0703V48.0537ZM7.93381 38.5147V28.7247H25.6973C26.5068 28.7247 27.1622 28.0693 27.1622 27.2598C27.1622 26.4511 26.5068 25.795 25.6973 25.795H7.04575C6.51855 23.79 4.93546 22.2076 2.92969 21.6812V20.8382H30.0903V28.775C30.0903 32.7049 33.2878 35.9024 37.2177 35.9024H62.7815C66.7122 35.9024 69.9089 32.7049 69.9089 28.775V28.7254H92.1867V38.5147H7.93381Z" fill="#333333"/>
<path d="M44.3359 75.8873H43.1641C42.3546 75.8873 41.6992 76.5434 41.6992 77.3521C41.6992 78.1608 42.3546 78.817 43.1641 78.817H44.3359C45.1454 78.817 45.8008 78.1608 45.8008 77.3521C45.8008 76.5434 45.1454 75.8873 44.3359 75.8873Z" fill="#333333"/>
<path d="M39.507 14.4402H41.3022L43.144 23.2445C43.501 24.9504 45.0254 26.1895 46.7687 26.1895H55.467C56.9982 26.1895 58.3906 25.2266 58.9315 23.7946L61.804 16.1904C62.0771 15.4663 61.9779 14.6546 61.5385 14.019C61.099 13.3828 60.3742 13.0028 59.6013 13.0028H47.299C46.4902 13.0028 45.8341 13.6582 45.8341 14.4677C45.8341 15.2764 46.4902 15.9325 47.299 15.9325H58.7697L56.191 22.7593C56.0781 23.0583 55.7874 23.2598 55.4677 23.2598H46.7687C46.4048 23.2598 46.0866 23.0004 46.0119 22.6448L44.1625 13.8062C43.884 12.4756 42.6961 11.5105 41.3366 11.5105H39.5078C38.6983 11.5105 38.043 12.1659 38.043 12.9753C38.043 13.7841 38.6983 14.4402 39.507 14.4402Z" fill="#333333"/>
<path d="M47.0215 27.4185H46.6309C45.8214 27.4185 45.166 28.0738 45.166 28.8833C45.166 29.692 45.8214 30.3481 46.6309 30.3481H47.0215C47.831 30.3481 48.4863 29.692 48.4863 28.8833C48.4863 28.0738 47.831 27.4185 47.0215 27.4185Z" fill="#333333"/>
<path d="M53.3691 27.4185H52.9785C52.169 27.4185 51.5137 28.0738 51.5137 28.8833C51.5137 29.692 52.169 30.3481 52.9785 30.3481H53.3691C54.1786 30.3481 54.834 29.692 54.834 28.8833C54.834 28.0738 54.1786 27.4185 53.3691 27.4185Z" fill="#333333"/>
</g>
<defs>
<clipPath id="clip0_277_1594">
<rect width="100" height="100" fill="white"/>
</clipPath>
</defs>
</svg>
