<svg width="30" height="30" viewBox="0 0 30 30" fill="none" xmlns="http://www.w3.org/2000/svg">
<g clip-path="url(#clip0_271_1406)">
<path d="M15.2009 30C14.0448 30.0287 11.7737 29.8488 11.0313 29.6724C10.5091 29.5527 10.0392 29.2684 9.69071 28.8615C9.33684 28.462 9.11447 27.9632 9.0538 27.433V27.4172C9.0149 27.0347 9.00296 26.65 9.01805 26.2658C9.00293 25.9474 9.01489 25.6283 9.0538 25.3119V25.2961C9.10773 24.7911 9.33364 24.3201 9.69364 23.9619C10.0557 23.601 10.5297 23.3737 11.0378 23.3174C11.7825 23.2389 14.0489 23.1955 15.1979 23.1961C16.347 23.1967 18.1985 23.2389 18.9432 23.3174C19.452 23.3746 19.9262 23.6031 20.288 23.9654C20.6477 24.3238 20.8736 24.7947 20.9278 25.2996V25.3154C20.965 25.6316 20.9835 25.9498 20.9835 26.2682C20.9855 26.6532 20.9671 27.0381 20.9284 27.4213V27.4371C20.8674 27.9675 20.6448 28.4664 20.2909 28.8662C19.9427 29.2731 19.4729 29.5574 18.9509 29.6771C18.2097 29.8394 16.3569 30.0047 15.2009 30Z" fill="#F0FF42"/>
<path d="M15.001 22.3248C16.9895 22.3248 18.6016 20.7128 18.6016 18.7242C18.6016 16.7357 16.9895 15.1237 15.001 15.1237C13.0124 15.1237 11.4004 16.7357 11.4004 18.7242C11.4004 20.7128 13.0124 22.3248 15.001 22.3248Z" fill="#F0FF42"/>
<path d="M24.3449 21.9229C26.2225 21.9229 27.7445 20.4008 27.7445 18.5233C27.7445 16.6457 26.2225 15.1237 24.3449 15.1237C22.4674 15.1237 20.9453 16.6457 20.9453 18.5233C20.9453 20.4008 22.4674 21.9229 24.3449 21.9229Z" fill="#F0FF42"/>
<path d="M5.65352 21.9228C7.53107 21.9228 9.05312 20.4007 9.05312 18.5232C9.05312 16.6456 7.53107 15.1236 5.65352 15.1236C3.77596 15.1236 2.25391 16.6456 2.25391 18.5232C2.25391 20.4007 3.77596 21.9228 5.65352 21.9228Z" fill="#F0FF42"/>
<path d="M20.1643 3.96681C19.7616 3.90356 19.3984 3.68839 19.1495 3.36557C18.9005 3.04276 18.7848 2.63682 18.826 2.23126C18.8386 2.11955 18.8639 2.00966 18.9016 1.90373C18.9464 1.76044 18.9472 1.60699 18.9038 1.46325C18.8605 1.31951 18.775 1.19209 18.6584 1.09748C18.1497 0.658385 17.5728 0.305124 16.9504 0.0515768C16.8147 -0.00567274 16.6638 -0.0160122 16.5216 0.0221965C16.3794 0.0604052 16.254 0.144977 16.1652 0.262514C16.0471 0.418253 15.8991 0.548782 15.7297 0.646413C15.5604 0.744044 15.3733 0.806803 15.1793 0.830992C14.9854 0.855181 14.7885 0.840312 14.6004 0.78726C14.4123 0.734207 14.2367 0.644045 14.084 0.522085C13.9897 0.446568 13.9054 0.359342 13.8332 0.262514C13.7445 0.144977 13.6191 0.0604052 13.4769 0.0221965C13.3346 -0.0160122 13.1837 -0.00567274 13.0481 0.0515768C12.474 0.285001 11.9383 0.603404 11.459 0.996108C11.3368 1.09202 11.2468 1.22301 11.2011 1.37152C11.1554 1.52003 11.1563 1.67895 11.2035 1.82697C11.49 2.58869 11.1033 3.47873 10.317 3.80333C10.1769 3.86182 10.0291 3.8999 9.87813 3.91642C9.72465 3.93465 9.5805 3.99964 9.4652 4.10256C9.34991 4.20549 9.26905 4.34138 9.2336 4.49181C9.08961 5.13103 9.07685 5.79283 9.1961 6.43712C9.22681 6.59232 9.306 6.73375 9.42225 6.84106C9.5385 6.94836 9.68582 7.01599 9.84297 7.03419C10.2466 7.07687 10.6183 7.27302 10.8814 7.58209C11.1444 7.89116 11.2786 8.2895 11.2563 8.69474C11.2462 8.86124 11.2076 9.02477 11.142 9.17814C11.0172 9.46583 11.1139 9.81447 11.3711 10.0266C11.8772 10.4582 12.4493 10.8058 13.0656 11.0561C13.142 11.0856 13.2228 11.1023 13.3047 11.1053C13.4153 11.1077 13.5247 11.0821 13.6227 11.0309C13.7208 10.9797 13.8043 10.9045 13.8654 10.8123C13.9976 10.6116 14.1777 10.4469 14.3895 10.3333C14.6012 10.2196 14.838 10.1605 15.0783 10.1613C15.3109 10.161 15.5402 10.2161 15.7472 10.3222C15.9542 10.4283 16.1329 10.5823 16.2684 10.7713C16.3567 10.897 16.4861 10.9878 16.6343 11.0282C16.7825 11.0685 16.9401 11.0558 17.0799 10.9922C17.6422 10.7423 18.1651 10.4116 18.632 10.0108C18.7507 9.91463 18.8372 9.78461 18.88 9.63804C18.9228 9.49147 18.9199 9.33532 18.8717 9.19044C18.5787 8.43458 18.9525 7.53986 19.7354 7.20705C19.8676 7.14924 20.0072 7.10981 20.1502 7.08986C20.3018 7.06781 20.443 6.99982 20.5548 6.89505C20.6666 6.79029 20.7436 6.65378 20.7754 6.50392C20.8428 6.18968 20.8793 5.8696 20.8844 5.54826C20.8842 5.20935 20.8486 4.87139 20.7783 4.53986C20.7462 4.39323 20.6704 4.25979 20.5609 4.15716C20.4513 4.05453 20.3133 3.98755 20.1648 3.96505L20.1643 3.96681ZM16.9609 5.54884C16.9612 5.93688 16.8463 6.31628 16.6309 6.63903C16.4155 6.96179 16.1092 7.21341 15.7508 7.36207C15.3923 7.51073 14.9978 7.54974 14.6172 7.47418C14.2366 7.39862 13.887 7.21188 13.6125 6.93757C13.338 6.66327 13.1511 6.31373 13.0753 5.93316C12.9995 5.55259 13.0383 5.15809 13.1867 4.79957C13.3352 4.44104 13.5866 4.13459 13.9092 3.91899C14.2319 3.70338 14.6112 3.5883 14.9992 3.5883C15.5187 3.59091 16.0161 3.79843 16.3835 4.16576C16.7508 4.53309 16.9583 5.03054 16.9609 5.55001V5.54884Z" fill="#F0FF42"/>
<path d="M29.9992 25.6412C29.9993 25.3405 29.9818 25.04 29.9471 24.7412V24.7266C29.8961 24.2498 29.6828 23.8051 29.343 23.4668C29.0018 23.1246 28.5541 22.9088 28.0738 22.8551C27.3707 22.7807 25.6246 22.7379 24.5371 22.7379C23.4496 22.7379 21.3221 22.7783 20.6113 22.8522C20.7631 22.9601 20.9055 23.0804 21.0373 23.2119C21.5674 23.7418 21.9001 24.4372 21.9801 25.1824V25.1953V25.203C22.0206 25.5628 22.0401 25.9248 22.0387 26.2869C22.0407 26.7012 22.0212 27.1152 21.9801 27.5274V27.5326V27.542C21.9242 28.0576 21.7573 28.5549 21.4908 28.9998C22.4359 29.1082 23.7555 29.1897 24.5377 29.1703C25.6293 29.178 27.3783 29.0215 28.0803 28.8627C28.5732 28.7498 29.0167 28.4813 29.3453 28.0969C29.6794 27.7201 29.8895 27.2496 29.9471 26.7492V26.7346C29.9838 26.3713 30.0012 26.0064 29.9992 25.6412Z" fill="#F0FF42"/>
<path d="M8.00569 27.5391V27.5355V27.5227C7.96399 27.1073 7.94989 26.6895 7.9635 26.2723C7.95101 25.9149 7.96511 25.5571 8.00569 25.2018V25.1848C8.05536 24.7214 8.20317 24.2739 8.43928 23.8721C8.67539 23.4703 8.99439 23.1234 9.37503 22.8545C8.6678 22.7801 6.92991 22.7402 5.84592 22.7402C4.76194 22.7402 2.61858 22.7807 1.91546 22.8574C1.43495 22.91 0.986706 23.1248 0.644558 23.4662C0.304779 23.8047 0.0916978 24.2497 0.0410423 24.7266V24.7412C0.00391643 25.0397 -0.00784441 25.3408 0.0058861 25.6412C-0.00825861 26.0039 0.00309749 26.3671 0.0398705 26.7281V26.7434C0.0975597 27.2436 0.307632 27.7141 0.641628 28.091C0.970428 28.4754 1.41415 28.7439 1.90725 28.8568C2.61038 29.0238 4.75315 29.1932 5.84475 29.1662C6.73097 29.1607 7.61617 29.1052 8.49612 28.9998C8.22907 28.554 8.06175 28.0557 8.00569 27.5391Z" fill="#F0FF42"/>
<path d="M5.59148 14.4726C5.55046 14.4726 5.51003 14.4726 5.46843 14.4661C5.3229 14.4502 5.18195 14.4057 5.05365 14.3351C4.92534 14.2646 4.81221 14.1695 4.72072 14.0552C4.62923 13.9409 4.56118 13.8097 4.52047 13.6691C4.47976 13.5284 4.46719 13.3812 4.48347 13.2357C4.7489 10.8134 6.42995 8.68411 8.76492 7.81165C9.04153 7.70831 9.34786 7.71908 9.61653 7.84161C9.8852 7.96413 10.0942 8.18836 10.1975 8.46497C10.3009 8.74158 10.2901 9.04792 10.1676 9.31659C10.0451 9.58525 9.82083 9.79425 9.54421 9.89759C7.98913 10.4783 6.87175 11.8839 6.69656 13.4783C6.66724 13.751 6.53824 14.0034 6.3343 14.1869C6.13035 14.3704 5.86583 14.4721 5.59148 14.4726Z" fill="#F0FF42"/>
<path d="M24.4069 14.4726C24.1323 14.4721 23.8676 14.3702 23.6636 14.1863C23.4596 14.0024 23.3308 13.7496 23.3019 13.4765C23.1261 11.8822 22.0093 10.4765 20.4542 9.89588C20.1776 9.79254 19.9534 9.58355 19.8308 9.31488C19.7083 9.04621 19.6975 8.73987 19.8009 8.46326C19.9042 8.18665 20.1132 7.96242 20.3819 7.8399C20.6505 7.71738 20.9569 7.7066 21.2335 7.80994C23.5685 8.6824 25.2495 10.8117 25.5149 13.234C25.5312 13.3795 25.5187 13.5267 25.4779 13.6674C25.4372 13.808 25.3692 13.9392 25.2777 14.0535C25.1862 14.1678 25.0731 14.2629 24.9448 14.3334C24.8165 14.404 24.6755 14.4485 24.53 14.4644C24.4919 14.4674 24.4479 14.4726 24.4069 14.4726Z" fill="#F0FF42"/>
</g>
<defs>
<clipPath id="clip0_271_1406">
<rect width="30" height="30" fill="white"/>
</clipPath>
</defs>
</svg>
