<svg width="30" height="30" viewBox="0 0 30 30" fill="none" xmlns="http://www.w3.org/2000/svg">
<g clip-path="url(#clip0_277_1570)">
<path d="M15.2009 30C14.0448 30.0287 11.7737 29.8488 11.0313 29.6724C10.5091 29.5527 10.0392 29.2684 9.69071 28.8615C9.33684 28.462 9.11447 27.9632 9.0538 27.433V27.4171C9.0149 27.0347 9.00296 26.6499 9.01805 26.2658C9.00293 25.9474 9.01489 25.6283 9.0538 25.3119V25.2961C9.10773 24.7911 9.33364 24.32 9.69364 23.9619C10.0557 23.601 10.5297 23.3737 11.0378 23.3173C11.7825 23.2388 14.0489 23.1955 15.1979 23.1961C16.347 23.1966 18.1985 23.2388 18.9432 23.3173C19.452 23.3746 19.9262 23.6031 20.288 23.9654C20.6477 24.3237 20.8736 24.7947 20.9278 25.2996V25.3154C20.965 25.6316 20.9835 25.9497 20.9835 26.2681C20.9855 26.6532 20.9671 27.0381 20.9284 27.4212V27.4371C20.8674 27.9675 20.6448 28.4664 20.2909 28.8662C19.9427 29.2731 19.4729 29.5574 18.9509 29.6771C18.2097 29.8394 16.3569 30.0046 15.2009 30Z" fill="#F0FF42"/>
<path d="M15.001 22.3248C16.9895 22.3248 18.6016 20.7127 18.6016 18.7242C18.6016 16.7356 16.9895 15.1236 15.001 15.1236C13.0124 15.1236 11.4004 16.7356 11.4004 18.7242C11.4004 20.7127 13.0124 22.3248 15.001 22.3248Z" fill="#F0FF42"/>
<path d="M24.3449 21.9228C26.2225 21.9228 27.7445 20.4008 27.7445 18.5232C27.7445 16.6457 26.2225 15.1236 24.3449 15.1236C22.4674 15.1236 20.9453 16.6457 20.9453 18.5232C20.9453 20.4008 22.4674 21.9228 24.3449 21.9228Z" fill="#F0FF42"/>
<path d="M5.65352 21.9228C7.53107 21.9228 9.05312 20.4007 9.05312 18.5231C9.05312 16.6456 7.53107 15.1235 5.65352 15.1235C3.77596 15.1235 2.25391 16.6456 2.25391 18.5231C2.25391 20.4007 3.77596 21.9228 5.65352 21.9228Z" fill="#F0FF42"/>
<path d="M20.1643 3.96678C19.7616 3.90353 19.3984 3.68836 19.1495 3.36554C18.9005 3.04272 18.7848 2.63679 18.826 2.23123C18.8386 2.11952 18.8639 2.00963 18.9016 1.90369C18.9464 1.76041 18.9472 1.60696 18.9038 1.46322C18.8605 1.31948 18.775 1.19206 18.6584 1.09744C18.1497 0.658354 17.5728 0.305093 16.9504 0.0515463C16.8147 -0.00570326 16.6638 -0.0160427 16.5216 0.022166C16.3794 0.0603747 16.254 0.144947 16.1652 0.262484C16.0471 0.418222 15.8991 0.548751 15.7297 0.646383C15.5604 0.744014 15.3733 0.806772 15.1793 0.830962C14.9854 0.855151 14.7885 0.840281 14.6004 0.787229C14.4123 0.734177 14.2367 0.644015 14.084 0.522054C13.9897 0.446538 13.9054 0.359311 13.8332 0.262484C13.7445 0.144947 13.6191 0.0603747 13.4769 0.022166C13.3346 -0.0160427 13.1837 -0.00570326 13.0481 0.0515463C12.474 0.284971 11.9383 0.603373 11.459 0.996078C11.3368 1.09198 11.2468 1.22298 11.2011 1.37149C11.1554 1.52 11.1563 1.67892 11.2035 1.82694C11.49 2.58866 11.1033 3.47869 10.317 3.8033C10.1769 3.86179 10.0291 3.89987 9.87813 3.91639C9.72465 3.93462 9.5805 3.99961 9.4652 4.10253C9.34991 4.20546 9.26905 4.34135 9.2336 4.49178C9.08961 5.131 9.07685 5.7928 9.1961 6.43709C9.22681 6.59229 9.306 6.73372 9.42225 6.84103C9.5385 6.94833 9.68582 7.01596 9.84297 7.03416C10.2466 7.07684 10.6183 7.27299 10.8814 7.58206C11.1444 7.89113 11.2786 8.28947 11.2563 8.69471C11.2462 8.86121 11.2076 9.02474 11.142 9.17811C11.0172 9.4658 11.1139 9.81444 11.3711 10.0265C11.8772 10.4582 12.4493 10.8057 13.0656 11.056C13.142 11.0856 13.2228 11.1022 13.3047 11.1053C13.4153 11.1077 13.5247 11.0821 13.6227 11.0309C13.7208 10.9797 13.8043 10.9045 13.8654 10.8123C13.9976 10.6115 14.1777 10.4469 14.3895 10.3332C14.6012 10.2196 14.838 10.1605 15.0783 10.1613C15.3109 10.1609 15.5402 10.2161 15.7472 10.3222C15.9542 10.4283 16.1329 10.5822 16.2684 10.7713C16.3567 10.8969 16.4861 10.9878 16.6343 11.0281C16.7825 11.0685 16.9401 11.0557 17.0799 10.9922C17.6422 10.7422 18.1651 10.4116 18.632 10.0107C18.7507 9.9146 18.8372 9.78458 18.88 9.63801C18.9228 9.49144 18.9199 9.33529 18.8717 9.19041C18.5787 8.43455 18.9525 7.53983 19.7354 7.20702C19.8676 7.14921 20.0072 7.10978 20.1502 7.08983C20.3018 7.06778 20.443 6.99979 20.5548 6.89502C20.6666 6.79026 20.7436 6.65375 20.7754 6.50389C20.8428 6.18965 20.8793 5.86957 20.8844 5.54823C20.8842 5.20932 20.8486 4.87136 20.7783 4.53983C20.7462 4.3932 20.6704 4.25976 20.5609 4.15713C20.4513 4.0545 20.3133 3.98752 20.1648 3.96502L20.1643 3.96678ZM16.9609 5.54881C16.9612 5.93685 16.8463 6.31625 16.6309 6.639C16.4155 6.96176 16.1092 7.21338 15.7508 7.36204C15.3923 7.5107 14.9978 7.54971 14.6172 7.47415C14.2366 7.39859 13.887 7.21185 13.6125 6.93754C13.338 6.66324 13.1511 6.3137 13.0753 5.93313C12.9995 5.55256 13.0383 5.15806 13.1867 4.79954C13.3352 4.44101 13.5866 4.13456 13.9092 3.91896C14.2319 3.70335 14.6112 3.58827 14.9992 3.58827C15.5187 3.59088 16.0161 3.7984 16.3835 4.16573C16.7508 4.53306 16.9583 5.03051 16.9609 5.54998V5.54881Z" fill="#F0FF42"/>
<path d="M29.9992 25.6412C29.9993 25.3404 29.9818 25.0399 29.9471 24.7412V24.7265C29.8961 24.2498 29.6828 23.805 29.343 23.4668C29.0018 23.1245 28.5541 22.9088 28.0738 22.855C27.3707 22.7806 25.6246 22.7379 24.5371 22.7379C23.4496 22.7379 21.3221 22.7783 20.6113 22.8521C20.7631 22.96 20.9055 23.0803 21.0373 23.2119C21.5674 23.7418 21.9001 24.4372 21.9801 25.1824V25.1953V25.2029C22.0206 25.5628 22.0401 25.9247 22.0387 26.2869C22.0407 26.7011 22.0212 27.1151 21.9801 27.5273V27.5326V27.542C21.9242 28.0575 21.7573 28.5549 21.4908 28.9998C22.4359 29.1082 23.7555 29.1896 24.5377 29.1703C25.6293 29.1779 27.3783 29.0214 28.0803 28.8627C28.5732 28.7498 29.0167 28.4813 29.3453 28.0968C29.6794 27.72 29.8895 27.2495 29.9471 26.7492V26.7345C29.9838 26.3713 30.0012 26.0063 29.9992 25.6412Z" fill="#F0FF42"/>
<path d="M8.00569 27.5391V27.5355V27.5227C7.96399 27.1073 7.94989 26.6895 7.9635 26.2723C7.95101 25.9149 7.96511 25.5571 8.00569 25.2018V25.1848C8.05536 24.7214 8.20317 24.2739 8.43928 23.8721C8.67539 23.4703 8.99439 23.1234 9.37503 22.8545C8.6678 22.7801 6.92991 22.7402 5.84592 22.7402C4.76194 22.7402 2.61858 22.7807 1.91546 22.8574C1.43495 22.91 0.986706 23.1248 0.644558 23.4662C0.304779 23.8047 0.0916978 24.2497 0.0410423 24.7266V24.7412C0.00391643 25.0397 -0.00784441 25.3408 0.0058861 25.6412C-0.00825861 26.0039 0.00309749 26.3671 0.0398705 26.7281V26.7434C0.0975597 27.2436 0.307632 27.7141 0.641628 28.091C0.970428 28.4754 1.41415 28.7439 1.90725 28.8568C2.61038 29.0238 4.75315 29.1932 5.84475 29.1662C6.73097 29.1607 7.61617 29.1052 8.49612 28.9998C8.22907 28.554 8.06175 28.0557 8.00569 27.5391Z" fill="#F0FF42"/>
<path d="M5.59148 14.4726C5.55046 14.4726 5.51003 14.4726 5.46843 14.4661C5.3229 14.4501 5.18195 14.4056 5.05365 14.3351C4.92534 14.2646 4.81221 14.1695 4.72072 14.0552C4.62923 13.9409 4.56118 13.8097 4.52047 13.669C4.47976 13.5284 4.46719 13.3811 4.48347 13.2356C4.7489 10.8134 6.42995 8.68408 8.76492 7.81162C9.04153 7.70828 9.34786 7.71905 9.61653 7.84158C9.8852 7.9641 10.0942 8.18833 10.1975 8.46494C10.3009 8.74155 10.2901 9.04789 10.1676 9.31656C10.0451 9.58522 9.82083 9.79422 9.54421 9.89756C7.98913 10.4782 6.87175 11.8839 6.69656 13.4782C6.66724 13.751 6.53824 14.0034 6.3343 14.1869C6.13035 14.3704 5.86583 14.4721 5.59148 14.4726Z" fill="#F0FF42"/>
<path d="M24.4069 14.4726C24.1323 14.4721 23.8676 14.3701 23.6636 14.1863C23.4596 14.0024 23.3308 13.7496 23.3019 13.4765C23.1261 11.8822 22.0093 10.4765 20.4542 9.89585C20.1776 9.79251 19.9534 9.58352 19.8308 9.31485C19.7083 9.04618 19.6975 8.73984 19.8009 8.46323C19.9042 8.18662 20.1132 7.96239 20.3819 7.83987C20.6505 7.71735 20.9569 7.70657 21.2335 7.80991C23.5685 8.68237 25.2495 10.8117 25.5149 13.2339C25.5312 13.3794 25.5187 13.5267 25.4779 13.6673C25.4372 13.808 25.3692 13.9392 25.2777 14.0535C25.1862 14.1678 25.0731 14.2629 24.9448 14.3334C24.8165 14.4039 24.6755 14.4484 24.53 14.4644C24.4919 14.4673 24.4479 14.4726 24.4069 14.4726Z" fill="#F0FF42"/>
</g>
<defs>
<clipPath id="clip0_277_1570">
<rect width="30" height="30" fill="white"/>
</clipPath>
</defs>
</svg>
