<svg width="30" height="30" viewBox="0 0 30 30" fill="none" xmlns="http://www.w3.org/2000/svg">
<g clip-path="url(#clip0_271_1370)">
<path d="M29.595 9.8525L15.5325 0.165C15.2125 -0.055 14.79 -0.055 14.4688 0.165L0.40625 9.8525C0.15125 10.0275 0 10.3162 0 10.625V28.75C0 29.44 0.56 30 1.25 30H3.75V15C3.75 14.31 4.31 13.75 5 13.75H25C25.69 13.75 26.25 14.31 26.25 15V30H28.75C29.44 30 30 29.44 30 28.75V10.625C30 10.3162 29.8488 10.0275 29.595 9.8525Z" fill="#F0FF42"/>
<path d="M11.5625 23.75V24.6875C11.5625 25.205 11.1425 25.625 10.625 25.625C10.1075 25.625 9.6875 25.205 9.6875 24.6875V23.75H7.5C7.155 23.75 6.875 24.03 6.875 24.375V29.375C6.875 29.72 7.155 30 7.5 30H13.75C14.095 30 14.375 29.72 14.375 29.375V24.375C14.375 24.03 14.095 23.75 13.75 23.75H11.5625Z" fill="#F0FF42"/>
<path d="M20.3125 23.75V24.6875C20.3125 25.205 19.8925 25.625 19.375 25.625C18.8575 25.625 18.4375 25.205 18.4375 24.6875V23.75H16.25C15.905 23.75 15.625 24.03 15.625 24.375V29.375C15.625 29.72 15.905 30 16.25 30H22.5C22.845 30 23.125 29.72 23.125 29.375V24.375C23.125 24.03 22.845 23.75 22.5 23.75H20.3125Z" fill="#F0FF42"/>
<path d="M15.9375 16.25V17.1875C15.9375 17.705 15.5175 18.125 15 18.125C14.4825 18.125 14.0625 17.705 14.0625 17.1875V16.25H11.875C11.53 16.25 11.25 16.53 11.25 16.875V21.875C11.25 22.22 11.53 22.5 11.875 22.5H18.125C18.47 22.5 18.75 22.22 18.75 21.875V16.875C18.75 16.53 18.47 16.25 18.125 16.25H15.9375Z" fill="#F0FF42"/>
</g>
<defs>
<clipPath id="clip0_271_1370">
<rect width="30" height="30" fill="white"/>
</clipPath>
</defs>
</svg>
