<svg width="636" height="1029" viewBox="0 0 636 1029" fill="none" xmlns="http://www.w3.org/2000/svg">
<g opacity="0.15" clip-path="url(#clip0_328_858)">
<path d="M688.59 107.18L206.053 234.171C62.2207 271.381 37.4862 321.722 68.4423 422.068C110.92 559.564 148.052 699.125 191.41 837.795C220.765 931.722 264.904 943.187 361.353 917.344C365.026 916.36 822.824 792.864 826.497 791.879C938.252 761.685 977.578 726.736 951.523 618.243L851.687 202.652C825.932 95.4752 777.641 83.7529 688.59 107.18ZM823.181 779.601C819.508 780.585 361.71 904.081 358.037 905.066C255.925 932.427 227.464 910.532 203.56 833.999C162.385 702.447 127.661 572.511 85.7879 435.353L846.601 235.905L939.168 621.225C962.543 718.585 933.652 749.777 823.181 779.601ZM839.32 205.637L843.616 223.538L82.0752 423.168C53.6018 330.663 64.7091 283.96 209.296 246.469L691.833 119.478C773.116 98.119 814.963 104.221 839.32 205.637Z" fill="#77ACF1"/>
<path d="M130.315 328.463C125.187 334.88 135.364 349.467 142.673 354.435C169.629 372.729 198.297 344.191 189.788 318.873C178.332 284.865 126.831 293.938 130.315 328.463ZM143.66 337.382C144.781 335.62 145.011 333.334 144.07 331.295C135.126 312.019 169.827 299.415 177.735 322.933C184.118 341.987 156.222 359.205 143.66 337.382Z" fill="#77ACF1"/>
<path d="M224.872 303.126C216.569 313.515 239.426 340.097 262.607 333.885C279.302 329.412 289.866 309.965 284.345 293.537C272.888 259.529 221.4 268.598 224.872 303.126ZM238.216 312.046C239.338 310.284 239.567 307.997 238.626 305.958C229.682 286.682 264.384 274.079 272.292 297.596C278.983 317.555 250.334 333.092 238.216 312.046Z" fill="#77ACF1"/>
<path d="M359.416 245.113C340.869 242.775 324.182 257.253 326.077 276.021C318.649 285.398 339.283 312.576 363.094 306.947C363.34 306.881 363.589 306.827 363.834 306.761C380.517 302.291 391.087 282.869 385.559 266.416C381.773 255.186 371.264 246.626 359.416 245.113ZM360.146 294.569C352.225 296.455 343.379 291.794 339.416 284.916C340.54 283.167 340.77 280.88 339.829 278.841C334.966 268.36 344.61 256.045 357.824 257.745C364.83 258.633 371.264 263.874 373.494 270.479C377.041 281.063 368.373 293.577 360.146 294.569Z" fill="#77ACF1"/>
<path d="M679.458 154.026C660.128 151.516 475.698 207.925 463.522 211.622C447.498 216.39 423.272 223.618 421.236 244.915C418.337 275.568 451.991 282.693 481.698 275.575C544.408 260.523 608.722 240.499 672.586 215.21C723.686 194.961 708.221 157.787 679.458 154.026ZM580.328 190.845L580.31 190.876L580.279 190.858C580.291 190.854 580.319 190.86 580.328 190.845ZM542.116 213.737C542.08 213.799 542.124 213.866 542.088 213.929C541.89 213.731 541.848 213.427 541.583 213.274L528.25 205.576C535.462 203.498 542.56 201.491 549.77 199.454L550.206 199.706L542.116 213.737ZM504.878 219.725L496.7 215.004C501.086 213.684 505.476 212.376 509.881 211.077L504.878 219.725ZM442.595 233.767C444.459 232.517 446.513 231.387 448.714 230.363L445.71 235.566L442.595 233.767ZM667.901 203.378C606.529 227.696 542.951 247.813 478.726 263.205C471.613 264.913 461.034 266.023 451.908 264.689C452.005 263.676 451.718 262.752 450.913 262.059L454.385 256.047C455.266 254.52 454.746 252.579 453.219 251.698C451.693 250.816 449.752 251.337 448.87 252.863L445.507 258.689L434.245 252.187C432.955 246.094 434.378 241.775 437.473 238.142L442.567 241.082C441.796 242.579 442.265 244.429 443.745 245.283C445.116 246.074 446.944 245.821 447.972 244.203L456.788 249.293C458.299 250.165 460.244 249.658 461.137 248.128C462.019 246.601 461.498 244.66 459.972 243.779L451.202 238.716L457.138 228.435L473.852 238.085C473.348 239.497 473.736 241.092 475.091 241.874C476.399 242.63 477.757 242.489 478.992 241.053L479.225 241.188C480.736 242.06 482.681 241.552 483.574 240.022C484.456 238.496 483.936 236.555 482.409 235.673L482.362 235.646L489.674 222.983C490.555 221.456 490.035 219.515 488.509 218.634C486.982 217.752 485.041 218.273 484.16 219.799L476.848 232.463L463.624 224.828C464.805 224.472 465.996 224.1 467.132 223.769C482.342 219.206 488.445 217.413 488.445 217.413C488.541 217.479 488.538 217.612 488.643 217.663L501.728 225.217C500.957 226.714 501.438 228.56 502.915 229.402C504.426 230.274 506.37 229.767 507.264 228.237L507.354 228.081C508.754 228.443 509.932 228.417 510.871 226.809C511.599 225.548 511.177 224.12 510.214 223.128L518.325 209.078C518.433 208.891 518.334 208.667 518.411 208.462C518.899 208.318 519.384 208.162 519.887 208.027L538.423 218.729C539.934 219.601 541.879 219.093 542.772 217.564C542.808 217.501 542.764 217.434 542.8 217.372C542.998 217.569 543.04 217.874 543.305 218.027C544.8 218.89 546.751 218.407 547.653 216.861L555.744 202.83L566.573 209.093C568.115 209.983 570.046 209.426 570.922 207.927C571.803 206.401 571.283 204.46 569.757 203.579L558.351 196.983C562.831 195.717 567.299 194.454 571.769 193.204L577.159 196.315L573.238 203.107C572.356 204.633 572.877 206.574 574.403 207.455C575.914 208.328 577.858 207.82 578.752 206.29L582.673 199.499L590.664 204.112C592.206 205.003 594.137 204.446 595.013 202.947C595.894 201.421 595.374 199.48 593.847 198.598L585.856 193.985L589.139 188.299C589.68 188.154 594.291 186.84 594.758 186.715L596.908 187.956L595.46 190.463C594.578 191.99 595.099 193.931 596.625 194.812C598.12 195.676 600.084 195.189 600.974 193.647L602.422 191.139L605.802 193.091C607.297 193.954 609.26 193.468 610.151 191.925C611.032 190.399 610.512 188.458 608.985 187.577L605.605 185.625L606.951 183.276C654.843 169.877 666.291 165.033 677.86 166.541C694.868 168.883 705.15 188.683 667.901 203.378Z" fill="#77ACF1"/>
<path d="M680.053 435.071C665.474 429.801 619.202 396.668 603.532 428.702C596.402 443.318 603.419 463.414 619.864 475.452C644.425 493.454 682.91 494.084 696.438 519.216C713.872 551.701 675.099 588.964 660.128 614.319C655.922 621.424 650.351 632.278 650.363 644.507C650.401 664.55 666.541 680.265 686.111 675.022C704.575 670.074 714.945 654.576 763.32 598.163C781.816 576.578 798.384 555.021 798.127 528.506C797.462 463.864 707.546 445.046 680.053 435.071ZM713.208 534.828L719.938 538.713C718.71 538.554 717.457 538.89 716.804 540.04L712.244 547.937C713.03 543.447 713.369 539.064 713.208 534.828ZM681.568 605.243C681.743 605.407 681.772 605.662 681.991 605.788L677.233 614.028L675.971 613.3C677.795 610.573 679.632 607.895 681.568 605.243ZM667.794 626.907C668.745 624.953 669.809 622.93 671.069 620.802C671.504 620.066 672.038 619.357 672.489 618.631L674.046 619.53L669.289 627.77L667.794 626.907ZM665.308 632.813L675.136 638.488L668.347 650.248L663.456 647.424C663.325 646.445 663.084 645.496 663.079 644.497C663.073 640.838 663.829 636.975 665.308 632.813ZM785.378 528.644C785.602 550.757 770.489 570.225 753.648 589.879C708.843 642.123 687.365 674.198 669.987 660.105L670.662 658.937L671.923 659.665C673.434 660.538 675.378 660.03 676.272 658.5C677.153 656.974 676.633 655.033 675.107 654.151L673.845 653.423L680.635 641.662L681.398 642.103C682.909 642.975 684.853 642.468 685.747 640.938C686.628 639.411 686.108 637.47 684.582 636.589L683.819 636.148L685.635 633.002C686.517 631.475 685.996 629.534 684.47 628.653C682.943 627.772 681.002 628.292 680.121 629.818L678.304 632.965L674.784 630.932L679.542 622.692L689.931 628.691C691.442 629.563 693.386 629.055 694.28 627.525C695.161 625.999 694.641 624.058 693.115 623.177L682.725 617.178L687.482 608.938L694.57 613.03C696.081 613.902 698.025 613.394 698.919 611.865C699.8 610.338 699.28 608.397 697.753 607.516L685.167 600.249C685.321 600.037 685.484 599.809 685.638 599.597C689.722 594.052 693.768 588.267 697.61 582.313L704.666 586.387L699.223 595.851C698.342 597.378 698.862 599.319 700.388 600.2C701.899 601.072 703.844 600.565 704.737 599.035L710.277 589.44C712.062 590.107 713.367 589.52 714.122 588.212C714.913 586.841 714.445 585.242 713.263 584.268L716.986 577.819C717.867 576.293 717.347 574.352 715.821 573.47C714.294 572.589 712.353 573.109 711.472 574.636L707.848 580.913L700.963 576.938C703.53 572.564 702.03 576.007 705.704 568.097C706.065 568.119 706.411 568.329 706.767 568.233C707.554 568.023 708.261 567.517 708.702 566.754L712.326 560.476L716.376 562.815C720.021 564.919 723.176 559.399 719.559 557.301L715.509 554.962L722.308 543.186C723.073 541.862 722.624 540.337 721.531 539.352C723.303 539.97 724.54 539.428 725.308 538.117C726.189 536.59 725.669 534.649 724.143 533.768L712.398 526.987C711.495 522.094 709.924 517.459 707.634 513.187C691.137 482.478 650.381 482.022 627.379 465.17C614.867 456.014 611.191 442.002 614.963 434.263C624.027 415.705 660.364 441.44 675.722 447.016C705.636 457.869 784.857 474.562 785.378 528.644Z" fill="#77ACF1"/>
<path d="M384.003 649.991C366.868 639.506 356.365 624.729 355.924 610.456C355.073 581.875 387.966 562.422 400.357 534.269C408.58 515.62 404.609 494.709 391.126 485.616C379.904 478.036 365.692 481.212 353.089 494.175C342.566 505.026 337.333 518.371 328.054 529.389C311.397 549.192 240.345 612.274 272.538 669.324C289.525 699.454 321.844 706.752 404.702 735.888C423.59 742.546 446.129 746.026 457.99 729.997C464.753 720.838 464.954 707.143 458.496 695.917C444.775 672.128 408.787 665.141 384.003 649.991ZM330.151 554.121L325.447 551.405C328.482 548.09 331.468 544.736 334.419 541.351L336.74 542.691L330.151 554.121ZM306.112 573.202L308.714 574.704L301.177 587.757L296.8 585.23C298.454 582.852 300.12 580.47 301.86 578.266C303.204 576.549 304.697 574.898 306.112 573.202ZM282.865 611.453L293.828 617.772L285.158 632.788L278.242 628.795C279.104 622.968 280.721 617.163 282.865 611.453ZM284.116 663.838L287.419 665.745L286.501 667.334C285.68 666.184 284.84 665.066 284.116 663.838ZM447.738 722.448C440.426 732.36 422.602 728.735 408.903 723.9C332.31 696.969 307.6 690.595 290.795 672.596L292.917 668.919L299.272 672.589C300.783 673.461 302.728 672.953 303.621 671.423C304.503 669.897 303.983 667.956 302.456 667.075L296.101 663.405L309.614 639.981C310.496 638.455 309.975 636.514 308.449 635.633C306.907 634.742 304.972 635.287 304.1 636.798L290.587 660.222L279.823 654.008C277.988 648.14 277.413 642.013 277.672 635.808L281.971 638.29L281.684 638.788C280.802 640.315 281.322 642.256 282.849 643.137C284.36 644.01 286.304 643.502 287.198 641.972L287.485 641.474L293.856 645.152C295.367 646.024 297.312 645.516 298.205 643.986C299.086 642.46 298.566 640.519 297.04 639.638L290.669 635.959L299.761 620.211C299.835 620.192 299.919 620.261 299.993 620.241C300.779 620.031 301.486 619.525 301.927 618.762C302.404 617.937 302.391 617.005 302.103 616.174L308.461 605.161C309.342 603.635 308.822 601.694 307.296 600.812C305.769 599.931 303.828 600.451 302.947 601.978L297.011 612.258L285.298 605.495C287.611 600.32 290.312 595.317 293.299 590.54L297.987 593.247L296.944 595.054C296.063 596.58 296.583 598.521 298.109 599.403C299.651 600.293 301.582 599.736 302.458 598.237L303.501 596.431L304.358 596.925C305.869 597.797 307.813 597.29 308.707 595.76C309.588 594.233 309.068 592.292 307.542 591.411L306.685 590.916L314.221 577.863L320.483 581.478C321.994 582.351 323.938 581.843 324.832 580.313C325.713 578.787 325.193 576.846 323.666 575.964L310.286 568.239C313.867 564.159 317.505 560.143 321.113 556.214L326.97 559.595L324.793 563.364C323.912 564.891 324.432 566.832 325.959 567.713C327.454 568.577 329.417 568.09 330.308 566.548L342.4 545.585C342.939 545.73 343.483 545.94 344.023 545.795C344.809 545.585 345.517 545.079 345.957 544.316C346.839 542.79 346.319 540.848 344.792 539.967L344.107 539.571C343.845 539.036 343.576 538.476 343.015 538.152C342.455 537.828 341.839 537.888 341.241 537.917L338.624 536.406C340.939 533.547 343.078 530.525 345.118 527.424C345.358 528.123 345.77 528.777 346.455 529.172C347.966 530.045 349.911 529.537 350.804 528.007L351.847 526.2L354.978 528.008C356.489 528.88 358.434 528.372 359.327 526.843C360.209 525.316 359.688 523.375 358.162 522.494L355.031 520.686L360.499 511.215L369.144 516.207C370.655 517.079 372.599 516.571 373.493 515.041C374.374 513.515 373.854 511.574 372.327 510.693L362.966 505.288C362.836 504.559 362.416 503.973 361.825 503.487C361.958 503.346 362.075 503.143 362.209 503.002C366.482 498.605 370.717 495.837 374.624 494.79C378.088 493.862 381.294 494.28 384.025 496.116C391.149 500.936 394.969 514.896 388.726 529.091C377.366 554.9 342.174 576.14 343.232 610.802C343.805 629.648 356.261 647.878 377.379 660.798C402.257 676.002 436.499 683.207 447.453 702.221C451.372 709.084 451.487 717.375 447.738 722.448Z" fill="#77ACF1"/>
<path d="M544.145 373.552C529.375 374.35 519.543 388.071 516.268 412.017C512.522 439.315 507.771 466.988 503.18 493.735C498.228 522.528 493.114 552.287 489.215 581.811C484.834 614.994 482.598 642.77 482.176 669.203C482.121 671.996 481.869 675.869 481.584 680.409C479.566 711.352 478.901 739.879 492.822 748.934C514.999 763.347 535.585 739.437 544.779 714.932C555.346 686.899 553.952 679.241 572.489 421.838C573.124 412.807 573.867 402.561 570.276 392.792C566.649 382.994 556.936 372.785 544.145 373.552ZM542.3 386.911L534.102 401.129L532.061 399.951C534.102 394.006 537.333 388.571 542.3 386.911ZM530.229 406.235L530.915 406.631L529.731 408.699C529.893 407.879 530.025 407.093 530.229 406.235ZM525.158 438.168L534.488 443.555L520.423 467.916C522.092 458.028 523.62 448.152 525.158 438.168ZM513.682 507.92L520.739 511.994L509.821 530.904C511.086 523.191 512.379 515.537 513.682 507.92ZM502.88 576.399L504.562 577.37L502.107 581.622C502.34 579.888 502.647 578.133 502.88 576.399ZM494.437 678.598L499.281 681.395L493.705 691.052C493.894 687.381 494.101 683.928 494.278 681.247C494.339 680.296 494.375 679.497 494.437 678.598ZM559.803 420.932C541.46 675.518 542.834 684.037 532.876 710.458C527.372 725.1 513.767 746.758 500.226 738.483L501.737 735.866C503.47 736.732 505.124 736.025 505.897 734.686C506.743 733.222 506.243 731.407 504.84 730.492L512.844 716.629C513.725 715.103 513.205 713.162 511.678 712.28C510.152 711.399 508.211 711.919 507.329 713.446L499.361 727.247L494.256 724.309C493.419 718.239 493.136 711.139 493.236 704.042C493.4 703.866 493.655 703.837 493.769 703.623L495.055 701.395L502.329 705.595C503.84 706.467 505.784 705.96 506.678 704.43C507.559 702.903 507.039 700.962 505.513 700.081L498.238 695.881L505.118 683.965C505.312 683.952 505.494 684.088 505.678 684.039C506.452 683.832 507.171 683.323 507.612 682.559C508.152 681.625 508.011 680.609 507.586 679.709L516.498 664.273C517.379 662.746 516.859 660.805 515.333 659.924C513.806 659.043 511.865 659.563 510.984 661.089L502.431 675.903L494.783 671.487C494.803 670.823 494.863 670.017 494.866 669.437C494.94 664.651 495.15 659.736 495.348 654.824C495.366 654.793 495.394 654.799 495.415 654.78L499.579 647.568L503.691 649.942C505.202 650.815 507.147 650.307 508.04 648.777C508.921 647.25 508.401 645.309 506.875 644.428L502.763 642.054L513.923 622.723C514.804 621.197 514.284 619.256 512.758 618.374C511.231 617.493 509.29 618.013 508.409 619.54L497.248 638.87L496.267 638.304C496.864 629.375 497.622 620.165 498.634 610.48L507.715 615.723C509.226 616.595 511.171 616.087 512.064 614.558C512.946 613.031 512.426 611.09 510.899 610.209L499.388 603.563C499.6 601.702 499.857 599.711 500.084 597.807L510.057 580.532L514.247 582.951C515.743 583.815 517.706 583.328 518.596 581.786C519.478 580.26 518.958 578.319 517.431 577.437L513.241 575.018L519.572 564.052C520.453 562.526 519.933 560.585 518.407 559.703C516.88 558.822 514.939 559.342 514.058 560.869L507.727 571.835L503.879 569.613C505.127 560.905 506.363 552.199 507.759 543.504L517.803 549.292C519.298 550.155 521.261 549.669 522.152 548.127C523.033 546.6 522.513 544.659 520.986 543.778L512.516 538.898L526.375 514.894C527.832 515.32 529.092 515.207 530 513.633C530.746 512.34 530.308 510.852 529.279 509.863L539.163 492.744C540.044 491.218 539.524 489.277 537.998 488.396C536.471 487.514 534.53 488.034 533.649 489.561L523.9 506.446L514.803 501.194C515.11 499.44 515.4 497.624 515.698 495.885C516.626 490.501 517.538 484.964 518.458 479.503C518.932 479.6 519.411 479.814 519.878 479.689C520.307 479.574 520.59 479.156 520.937 478.878L530.732 484.523C532.227 485.386 534.178 484.903 535.081 483.357C535.962 481.831 535.442 479.89 533.915 479.009L524.492 473.568L544.834 438.333C545.715 436.807 545.195 434.866 543.669 433.985C542.142 433.103 540.201 433.623 539.32 435.15L537.665 438.016L526.17 431.379C526.866 426.755 527.619 422.143 528.275 417.516C529.038 417.957 529.891 418.044 530.677 417.834C531.464 417.623 532.171 417.117 532.612 416.354L536.416 409.765L541.385 412.634C542.896 413.507 544.84 412.999 545.733 411.469C546.615 409.942 546.095 408.001 544.568 407.12L539.584 404.242L548.82 388.245C549.062 387.824 548.953 387.367 548.992 386.922C553.228 388.578 556.752 392.887 558.323 397.128C560.993 404.391 560.392 412.808 559.803 420.932Z" fill="#77ACF1"/>
</g>
<defs>
<clipPath id="clip0_328_858">
<rect width="839.405" height="839.405" fill="white" transform="translate(0 217.254) rotate(-15)"/>
</clipPath>
</defs>
</svg>
