<svg width="623" height="1057" viewBox="0 0 623 1057" fill="none" xmlns="http://www.w3.org/2000/svg">
<g opacity="0.15" clip-path="url(#clip0_328_876)">
<path d="M441.327 603.162C497.645 297.195 202.297 50.5899 -81.2186 213.659C-83.8554 213.345 -86.5428 214.533 -87.8763 217.439C-250.061 315.037 -310.228 532.862 -216.459 703.984C-217.417 707.41 -215.659 710.9 -212.013 711.944C-164.498 793.89 -88.9564 855.203 -0.400954 883.155C2.44986 884.135 5.27024 885.23 8.16256 886.005C8.9709 886.221 9.79363 886.333 10.6087 886.525C11.8684 886.876 13.0975 887.34 14.3606 887.679C200.757 937.624 398.051 821.709 440.311 608.521C440.854 607.759 441.271 606.91 441.452 605.93C441.639 604.978 441.55 604.047 441.327 603.162ZM429.184 597.052L362.06 584.751C375.06 543.36 363.44 492.555 318.447 465.108C320.244 431.219 319.039 398.786 315.137 368.487C339.734 363.179 363.864 355.728 387.14 345.856C427.92 419.337 444.65 508.007 429.184 597.052ZM260.515 666.813C245.875 703.312 229.851 732.902 212.118 759.272C164.899 712.398 115.06 678.278 52.3092 660.773C55.9212 649.314 59.5489 638.049 63.194 627.072C171.317 657.831 213.778 673.256 260.515 666.813ZM-117.67 654.39C-119.559 627.893 -118.991 599.604 -115.99 570.166C-88.3752 584.97 -58.1046 592.946 50.6053 623.483C46.9264 634.585 43.2522 645.974 39.603 657.572C-11.8485 645.437 -66.0197 645.826 -117.269 658.599C-117.394 657.199 -117.577 655.809 -117.67 654.39ZM-40.2562 574.986L-33.9008 585.976C-41.1454 583.913 -35.142 585.657 -49.1215 581.599L-49.7688 580.478L-40.2562 574.986ZM12.2764 587.533L17.7685 597.045L13.6368 599.431C8.73128 598.035 3.8098 596.649 -1.09907 595.266L12.2764 587.533ZM45.439 591.586L51.7263 602.476L42.7421 607.663C38.0733 606.344 33.4077 605.013 28.7389 603.694C28.3921 602.058 27.6723 601.107 26.7014 599.425L45.5505 588.543C45.049 589.505 44.8692 590.58 45.439 591.586ZM51.5116 610.148L55.0027 608.132L57.0738 611.719C55.2205 611.209 53.3741 610.674 51.5116 610.148ZM-9.86849 592.781C-14.7866 591.382 -19.6954 589.998 -24.6135 588.599L-15.2611 583.2L-9.769 592.712L-9.86849 592.781ZM35.6003 670.388C16.7173 732.12 0.304545 799.739 -2.03781 868.651C-73.2671 839.643 -107.139 749.724 -115.989 672.263C-66.5856 659.861 -13.9699 659.164 35.6003 670.388ZM10.6528 872.972C10.7087 872.663 10.8464 872.402 10.8644 872.081C12.782 803.34 29.3543 735.479 48.3268 673.514C110.269 690.301 158.647 724.26 204.547 770.198C158.852 833.531 85.4732 893.833 10.6528 872.972ZM82.8322 619.055L90.1668 614.82L94.5309 622.379C90.6451 621.27 86.7306 620.167 82.8322 619.055ZM114.144 627.945L125.338 621.482L131.995 633.013C126.041 631.336 120.094 629.634 114.144 627.945ZM180.991 615.358C181.065 615.689 180.948 616.024 181.124 616.328L188.672 629.383L172.293 638.829L164.304 624.992L180.991 615.358ZM204.616 643.943L197.598 631.788L210.727 624.219L218.928 638.424L206.225 645.769C203.695 647.23 204.224 651.013 207.016 651.761C207.824 651.977 208.714 651.891 209.498 651.438L222.201 644.093L228.257 654.583C210.107 653.361 192.066 649.556 174.742 644.995L191.942 635.065L198.96 647.22C201.105 650.935 206.801 647.71 204.616 643.943ZM242.801 650.574C243.697 652.127 245.69 652.675 247.272 651.772L260.243 644.283L264.228 651.185C264.654 651.922 265.344 652.377 266.079 652.615C256.237 654.486 246.643 655.38 234.362 654.987C234.775 654.055 234.9 653.032 234.354 652.087L227.845 640.813L250.63 627.669L256.967 638.626L243.995 646.115C242.442 647.012 241.907 649.008 242.801 650.574ZM269.732 651.915L268.933 652.067C270.225 651.086 270.73 649.353 269.898 647.912L265.9 641.006L280.329 632.676L283.716 638.524C285.871 642.256 291.555 639.027 289.373 635.248L285.989 629.387L297.167 622.933C298.736 622.027 299.271 620.031 298.365 618.462C297.459 616.892 295.463 616.358 293.894 617.264L282.716 623.717L275.72 611.582C274.814 610.012 272.818 609.478 271.249 610.384C269.679 611.29 269.145 613.285 270.051 614.855L277.05 626.978L262.621 635.308L256.297 624.355L263.375 620.268C264.945 619.362 265.479 617.366 264.573 615.797C263.667 614.227 261.672 613.693 260.102 614.599L253.024 618.685L250.398 614.137C249.483 612.552 247.48 612.042 245.927 612.939C244.357 613.845 243.823 615.841 244.729 617.41L247.355 621.959L224.582 635.106L216.381 620.901L221.682 617.841C223.251 616.935 223.786 614.939 222.88 613.37C221.983 611.817 219.994 611.257 218.409 612.172L194.31 626.074L186.762 613.019C186.207 612.058 185.243 611.665 184.243 611.559C184.269 610.957 184.336 610.352 184.013 609.792C183.106 608.222 181.111 607.688 179.554 608.597L161.025 619.295L155.358 609.478C154.461 607.924 152.472 607.364 150.886 608.28C149.317 609.186 148.782 611.181 149.688 612.751L155.356 622.568L143.377 629.484C141.808 630.39 141.273 632.385 142.179 633.955C143.076 635.508 145.068 636.056 146.638 635.149L158.617 628.233L167.073 642.899C161.804 641.447 156.592 639.983 151.497 638.536C146.538 637.14 141.598 635.721 136.642 634.312C138.11 633.379 138.634 631.475 137.755 629.954L130.96 618.183L154.036 604.86C155.606 603.954 156.141 601.958 155.235 600.389C154.328 598.819 152.333 598.284 150.763 599.191L127.687 612.514L121.399 601.624C120.493 600.055 118.498 599.52 116.928 600.426C115.359 601.332 114.824 603.328 115.73 604.897L122.017 615.787L108.229 623.748C107.416 624.207 106.911 624.978 106.713 625.819C104.285 625.128 101.845 624.433 99.4179 623.742C100.747 622.772 101.262 621.001 100.408 619.541L95.7669 611.501L113.447 601.294C115.016 600.388 115.551 598.392 114.645 596.823C113.739 595.253 111.743 594.718 110.174 595.625L92.4938 605.832L86.41 595.295C85.4947 593.709 83.4923 593.2 81.9389 594.097C80.3695 595.003 79.8348 596.998 80.7409 598.568L86.8247 609.105L73.9971 616.511C71.8854 615.905 69.7577 615.308 67.646 614.701L65.9603 614.222C65.9418 614.19 65.968 614.143 65.9495 614.111L60.5776 604.807L93.0068 586.084C94.5763 585.178 95.111 583.182 94.2049 581.613C93.2988 580.043 91.3032 579.508 89.7338 580.415L57.3045 599.138L51.0172 588.248C50.4348 587.239 49.4101 586.87 48.3296 586.81L52.5253 584.388C54.0948 583.482 54.6295 581.486 53.7234 579.917C52.808 578.331 50.8057 577.822 49.2649 578.722L23.3501 593.695L17.858 584.182L26.8741 578.977C28.4436 578.07 28.9783 576.075 28.0722 574.505C27.1568 572.92 25.1545 572.411 23.6011 573.307L14.0084 578.846C13.0404 578.316 11.9305 578.113 10.9216 578.695C9.8967 579.287 9.52985 580.353 9.49571 581.44L-4.19666 589.346L-9.68875 579.833L-2.91462 575.922C-1.34519 575.016 -0.810473 573.02 -1.71659 571.451C-2.6227 569.882 -4.61828 569.347 -6.18768 570.253L-12.9618 574.164L-13.4149 573.379C-14.321 571.81 -16.3165 571.275 -17.886 572.181C-19.4554 573.087 -19.9901 575.083 -19.084 576.652L-18.6309 577.437L-28.1435 582.929L-34.6931 571.604L-22.8423 564.762C-21.2729 563.855 -20.7382 561.86 -21.6443 560.29C-22.5504 558.721 -24.546 558.186 -26.1154 559.092L-53.1478 574.7C-55.5518 570.536 -58.0863 563.576 -62.0259 565.85C-63.5953 566.756 -64.13 568.752 -63.2239 570.321L-58.8043 577.976L-59.541 578.401C-222.528 528.543 -169.078 413.735 -111.17 384.904C-66.7255 362.916 -19.1845 369.942 188.417 433.556C260.158 455.554 302.68 463.78 328.265 488.734C351.327 511.036 359.564 547.384 349.875 579.605C349.801 579.274 349.931 578.943 349.755 578.639C349.191 577.662 348.211 577.277 347.166 577.187L339.612 564.103C338.706 562.534 336.71 561.999 335.141 562.905C333.571 563.811 333.037 565.807 333.943 567.376L341.127 579.819L327.451 587.715L323.632 581.101C322.735 579.548 320.746 578.988 319.161 579.903C317.591 580.809 317.057 582.805 317.966 584.362L321.785 590.976L305.274 600.508C303.704 601.414 303.17 603.41 304.076 604.979C304.973 606.533 306.977 607.084 308.534 606.174L325.045 596.642L332.516 609.581C332.867 610.19 333.465 610.485 334.053 610.765C318.778 630.944 295.641 645.957 269.732 651.915ZM-55.7119 360.209C-44.8627 338.614 -30.9383 315.596 -15.4691 294.643C26.1732 326.513 74.3876 350.83 126.825 364.691C124.465 376.228 122.019 387.729 119.407 399.145C77.6393 386.992 -13.7751 360.616 -55.7119 360.209ZM131.987 402.868C134.674 391.174 137.168 379.389 139.584 367.595C193.048 379.85 248.544 380.98 302.252 371.207C305.764 398.667 307.017 427.891 305.78 458.018C286.18 448.516 144.526 406.593 131.987 402.868ZM142.292 354.811C149.394 319.162 168.588 215.549 174.311 184.187C252.289 194.78 288.03 280.854 300.249 358.271C248.106 367.813 194.204 366.744 142.292 354.811ZM161.218 183.238C156.549 208.695 136.971 314.548 129.585 351.663C80.189 338.374 33.436 315.423 -7.32538 284.358C54.2268 206.457 117.85 182.311 161.218 183.238ZM-17.4649 276.023C-36.9355 260.125 -54.8878 242.4 -70.9715 222.956C-9.67274 188.59 55.7686 173.068 118.818 175.87C64.7882 191.039 17.6271 231.751 -17.4649 276.023ZM337.808 605.544L330.846 593.485L344.522 585.589L346.741 589.432C344.35 595.073 341.256 600.403 337.808 605.544ZM380.452 334.439C358.708 343.544 336.208 350.524 313.261 355.53C305.008 303.53 287.246 249.374 251.413 211.385C302.408 238.058 346.66 278.425 380.452 334.439ZM-82.5734 229.527C-65.5337 250.405 -46.4324 269.398 -25.6795 286.371C-41.9914 308.397 -57.3013 333.453 -70.4906 360.852C-125.292 365.309 -162.258 400.36 -175.863 443.959C-196.913 440.877 -216.655 439.026 -235.772 438.33C-213.123 351.63 -161.125 277.355 -82.5734 229.527ZM-238.845 451.314C-219.755 451.908 -199.983 453.7 -178.898 456.751C-187.225 502.075 -165.969 537.43 -128.264 562.573C-131.906 595.006 -132.783 626.218 -130.725 655.319C-130.558 657.624 -130.278 659.865 -130.079 662.152C-156.653 669.936 -182.241 681.111 -206.096 695.62C-247.894 618.157 -257.369 534.287 -238.845 451.314ZM-199.694 707.042C-177.605 693.616 -153.719 683.135 -128.782 675.752C-121.66 735.613 -100.95 799.831 -59.8786 843.582C-117.811 811.68 -165.779 764.822 -199.694 707.042ZM77.3841 885.222C125.036 872.283 173.669 834.564 213.793 779.647C232.9 799.63 250.3 820.375 266.252 840.514C209.777 873.75 144.014 890.323 77.3841 885.222ZM277.441 833.563C260.515 812.16 241.939 790.045 221.442 768.782C241.344 739.623 259.373 706.238 275.702 663.735C311.767 654.379 342.31 629.614 357.363 597.179L426.76 609.885C408.093 699.358 358.777 781.255 277.441 833.563Z" fill="#77ACF1"/>
<path d="M48.6071 449.971C35.2505 442.629 22.745 500.466 3.84562 506.231C-9.3333 510.199 -24.7325 493.809 -14.6171 467.374C-13.3928 464.169 -14.8389 460.573 -17.9418 459.119C-27.7801 454.56 -30.4818 473.939 -37.5 486.895C-46.8591 504.192 -61.8917 501.64 -66.3469 488.56C-71.4643 473.557 -59.153 458.378 -49.6999 446.995C-44.1767 440.326 -54.2623 431.992 -59.7535 438.643C-109.617 498.585 -53.8084 533.411 -28.8324 497.692C-22.09 516.785 7.68465 537.271 31.112 495.005L51.1536 458.857C52.9068 455.699 51.7618 451.737 48.6071 449.971Z" fill="#77ACF1"/>
<path d="M169.365 482.328C166.166 480.577 162.22 481.713 160.479 484.875C143.149 516.158 135.526 535.261 124.604 538.588C116.841 540.935 108.246 534.868 105.067 527.735C100.559 517.633 103.811 505.848 106.141 499.731C107.365 496.526 105.919 492.93 102.816 491.476C99.6628 490.008 96.011 491.209 94.3464 494.188C91.8125 498.693 89.9892 503.376 88.2226 507.898C86.7145 511.758 85.2316 515.625 83.258 519.252C73.8989 536.549 58.8664 533.996 54.4112 520.917C49.303 505.93 61.573 490.753 71.0674 479.368C76.5679 472.733 66.5876 464.36 61.0205 470.99C11.1648 530.853 66.9268 565.802 91.9257 530.048C97.905 546.988 115.053 555.184 128.406 551.073C143.693 546.41 148.674 533.125 171.899 491.21C173.652 488.052 172.507 484.091 169.365 482.328Z" fill="#77ACF1"/>
<path d="M300.341 517.423C286.978 510.106 274.463 567.926 255.58 573.683C242.381 577.673 227.024 561.226 237.117 534.825C238.341 531.62 236.895 528.025 233.792 526.57C230.639 525.103 226.987 526.304 225.323 529.283C218.025 542.272 214.069 566.079 198.904 566.646C188.255 566.933 179.144 553.093 187.693 534.93C191.114 527.616 196.43 521.216 202.047 514.45C207.57 507.781 197.485 499.447 191.993 506.098C142.049 566.14 197.97 600.901 222.918 565.134C229.236 583.992 259.418 604.777 282.859 562.46L302.9 526.312C304.628 523.147 303.483 519.185 300.341 517.423Z" fill="#77ACF1"/>
<path d="M312.672 621.145L300.754 600.502C299.848 598.933 297.853 598.398 296.283 599.304C294.714 600.21 294.179 602.206 295.085 603.775L307.003 624.418C309.17 628.153 314.854 624.924 312.672 621.145Z" fill="#77ACF1"/>
</g>
<defs>
<clipPath id="clip0_328_876">
<rect width="863" height="863" fill="white" transform="translate(-210.617) rotate(15)"/>
</clipPath>
</defs>
</svg>
